STARTFONT 2.1
COMMENT Send bug reports to Tomi Ollila (at iki fi)
FONT -too-Fatty-Medium-R-Normal--16-120-75-75-C-70-ISO10646-1
SIZE 12 75 75
FONTBOUNDINGBOX 7 16 0 -3
STARTPROPERTIES 23
FONTNAME_REGISTRY ""
FOUNDRY "too"
FAMILY_NAME "Fatty"
WEIGHT_NAME "Medium"
SLANT "R"
SETWIDTH_NAME "Normal"
ADD_STYLE_NAME ""
PIXEL_SIZE 16
POINT_SIZE 120
RESOLUTION_X 75
RESOLUTION_Y 75
SPACING "C"
AVERAGE_WIDTH 70
CHARSET_REGISTRY "ISO10646"
CHARSET_ENCODING "1"
DEFAULT_CHAR 0
FONT_DESCENT 3
FONT_ASCENT 13
COPYRIGHT "Tomi Ollila, distributed under GPL v2 or later"
CAP_HEIGHT 10
X_HEIGHT 7
UNDERLINE_POSITION -3
UNDERLINE_THICKNESS 1
ENDPROPERTIES
CHARS 659
STARTCHAR U+0000 char0
ENCODING 0
SWIDTH 560 0
DWIDTH 7 0
BBX 7 16 0 -3
BITMAP
00
00
00
54
00
44
00
44
00
44
00
54
00
00
00
00
ENDCHAR
STARTCHAR U+0020 space
ENCODING 32
SWIDTH 560 0
DWIDTH 7 0
BBX 7 16 0 -3
BITMAP
00
00
00
00
00
00
00
00
00
00
00
00
00
00
00
00
ENDCHAR
STARTCHAR U+0021 exclamation mark
ENCODING 33
SWIDTH 560 0
DWIDTH 7 0
BBX 7 16 0 -3
BITMAP
00
00
00
30
30
30
30
30
30
30
00
30
30
00
00
00
ENDCHAR
STARTCHAR U+0022 quotation mark
ENCODING 34
SWIDTH 560 0
DWIDTH 7 0
BBX 7 16 0 -3
BITMAP
00
00
CC
CC
CC
CC
00
00
00
00
00
00
00
00
00
00
ENDCHAR
STARTCHAR U+0023 number sign
ENCODING 35
SWIDTH 560 0
DWIDTH 7 0
BBX 7 16 0 -3
BITMAP
00
00
00
48
48
FC
FC
48
48
FC
FC
48
48
00
00
00
ENDCHAR
STARTCHAR U+0024 dollar sign
ENCODING 36
SWIDTH 560 0
DWIDTH 7 0
BBX 7 16 0 -3
BITMAP
00
00
00
30
7C
BC
B0
F8
7C
34
F4
F8
30
00
00
00
ENDCHAR
STARTCHAR U+0025 percent sign
ENCODING 37
SWIDTH 560 0
DWIDTH 7 0
BBX 7 16 0 -3
BITMAP
00
00
00
64
9C
98
78
30
30
78
64
E4
98
00
00
00
ENDCHAR
STARTCHAR U+0026 ampersand
ENCODING 38
SWIDTH 560 0
DWIDTH 7 0
BBX 7 16 0 -3
BITMAP
00
00
00
00
70
D8
D8
70
74
DC
D8
FC
74
00
00
00
ENDCHAR
STARTCHAR U+0027 apostrophe
ENCODING 39
SWIDTH 560 0
DWIDTH 7 0
BBX 7 16 0 -3
BITMAP
00
00
30
30
30
30
00
00
00
00
00
00
00
00
00
00
ENDCHAR
STARTCHAR U+0028 left parenthesis
ENCODING 40
SWIDTH 560 0
DWIDTH 7 0
BBX 7 16 0 -3
BITMAP
00
00
0C
18
30
30
60
60
60
60
60
30
30
18
0C
00
ENDCHAR
STARTCHAR U+0029 right parenthesis
ENCODING 41
SWIDTH 560 0
DWIDTH 7 0
BBX 7 16 0 -3
BITMAP
00
00
60
30
18
18
0C
0C
0C
0C
0C
18
18
30
60
00
ENDCHAR
STARTCHAR U+002A asterisk
ENCODING 42
SWIDTH 560 0
DWIDTH 7 0
BBX 7 16 0 -3
BITMAP
00
00
00
00
00
10
54
38
7C
38
54
10
00
00
00
00
ENDCHAR
STARTCHAR U+002B plus sign
ENCODING 43
SWIDTH 560 0
DWIDTH 7 0
BBX 7 16 0 -3
BITMAP
00
00
00
00
00
30
30
FC
FC
30
30
00
00
00
00
00
ENDCHAR
STARTCHAR U+002C comma
ENCODING 44
SWIDTH 560 0
DWIDTH 7 0
BBX 7 16 0 -3
BITMAP
00
00
00
00
00
00
00
00
00
00
00
30
70
60
C0
00
ENDCHAR
STARTCHAR U+002D hyphen-minus
ENCODING 45
SWIDTH 560 0
DWIDTH 7 0
BBX 7 16 0 -3
BITMAP
00
00
00
00
00
00
00
7C
7C
00
00
00
00
00
00
00
ENDCHAR
STARTCHAR U+002E full stop
ENCODING 46
SWIDTH 560 0
DWIDTH 7 0
BBX 7 16 0 -3
BITMAP
00
00
00
00
00
00
00
00
00
00
00
30
78
30
00
00
ENDCHAR
STARTCHAR U+002F solidus
ENCODING 47
SWIDTH 560 0
DWIDTH 7 0
BBX 7 16 0 -3
BITMAP
00
00
04
0C
0C
18
18
30
30
60
60
C0
C0
80
00
00
ENDCHAR
STARTCHAR U+0030 digit zero
ENCODING 48
SWIDTH 560 0
DWIDTH 7 0
BBX 7 16 0 -3
BITMAP
00
00
00
30
78
CC
CC
DC
EC
CC
CC
78
30
00
00
00
ENDCHAR
STARTCHAR U+0031 digit one
ENCODING 49
SWIDTH 560 0
DWIDTH 7 0
BBX 7 16 0 -3
BITMAP
00
00
00
10
30
70
F0
30
30
30
30
30
30
00
00
00
ENDCHAR
STARTCHAR U+0032 digit two
ENCODING 50
SWIDTH 560 0
DWIDTH 7 0
BBX 7 16 0 -3
BITMAP
00
00
00
78
FC
CC
0C
0C
18
30
60
FC
FC
00
00
00
ENDCHAR
STARTCHAR U+0033 digit three
ENCODING 51
SWIDTH 560 0
DWIDTH 7 0
BBX 7 16 0 -3
BITMAP
00
00
00
FC
FC
18
30
38
1C
0C
CC
FC
78
00
00
00
ENDCHAR
STARTCHAR U+0034 digit four
ENCODING 52
SWIDTH 560 0
DWIDTH 7 0
BBX 7 16 0 -3
BITMAP
00
00
00
18
38
78
78
D8
D8
FC
FC
18
18
00
00
00
ENDCHAR
STARTCHAR U+0035 digit five
ENCODING 53
SWIDTH 560 0
DWIDTH 7 0
BBX 7 16 0 -3
BITMAP
00
00
00
FC
FC
C0
F8
FC
0C
0C
CC
FC
78
00
00
00
ENDCHAR
STARTCHAR U+0036 digit six
ENCODING 54
SWIDTH 560 0
DWIDTH 7 0
BBX 7 16 0 -3
BITMAP
00
00
00
78
FC
CC
C0
F8
FC
CC
CC
FC
78
00
00
00
ENDCHAR
STARTCHAR U+0037 digit seven
ENCODING 55
SWIDTH 560 0
DWIDTH 7 0
BBX 7 16 0 -3
BITMAP
00
00
00
FC
FC
18
18
30
30
60
60
C0
C0
00
00
00
ENDCHAR
STARTCHAR U+0038 digit eight
ENCODING 56
SWIDTH 560 0
DWIDTH 7 0
BBX 7 16 0 -3
BITMAP
00
00
00
78
FC
CC
CC
78
78
CC
CC
FC
78
00
00
00
ENDCHAR
STARTCHAR U+0039 digit nine
ENCODING 57
SWIDTH 560 0
DWIDTH 7 0
BBX 7 16 0 -3
BITMAP
00
00
00
78
FC
CC
CC
FC
7C
0C
CC
FC
78
00
00
00
ENDCHAR
STARTCHAR U+003A colon
ENCODING 58
SWIDTH 560 0
DWIDTH 7 0
BBX 7 16 0 -3
BITMAP
00
00
00
00
00
30
78
30
00
00
00
30
78
30
00
00
ENDCHAR
STARTCHAR U+003B semicolon
ENCODING 59
SWIDTH 560 0
DWIDTH 7 0
BBX 7 16 0 -3
BITMAP
00
00
00
00
00
30
78
30
00
00
00
38
70
60
C0
00
ENDCHAR
STARTCHAR U+003C less-than sign
ENCODING 60
SWIDTH 560 0
DWIDTH 7 0
BBX 7 16 0 -3
BITMAP
00
00
00
00
0C
18
30
60
C0
60
30
18
0C
00
00
00
ENDCHAR
STARTCHAR U+003D equals sign
ENCODING 61
SWIDTH 560 0
DWIDTH 7 0
BBX 7 16 0 -3
BITMAP
00
00
00
00
00
FC
FC
00
00
FC
FC
00
00
00
00
00
ENDCHAR
STARTCHAR U+003E greater-than sign
ENCODING 62
SWIDTH 560 0
DWIDTH 7 0
BBX 7 16 0 -3
BITMAP
00
00
00
00
C0
60
30
18
0C
18
30
60
C0
00
00
00
ENDCHAR
STARTCHAR U+003F question mark
ENCODING 63
SWIDTH 560 0
DWIDTH 7 0
BBX 7 16 0 -3
BITMAP
00
00
00
78
FC
8C
0C
18
30
30
00
30
30
00
00
00
ENDCHAR
STARTCHAR U+0040 commercial at
ENCODING 64
SWIDTH 560 0
DWIDTH 7 0
BBX 7 16 0 -3
BITMAP
00
00
00
38
7C
CC
DC
94
94
D4
CC
70
38
00
00
00
ENDCHAR
STARTCHAR U+0041 latin capital letter a
ENCODING 65
SWIDTH 560 0
DWIDTH 7 0
BBX 7 16 0 -3
BITMAP
00
00
00
78
FC
CC
CC
CC
FC
FC
CC
CC
CC
00
00
00
ENDCHAR
STARTCHAR U+0042 latin capital letter b
ENCODING 66
SWIDTH 560 0
DWIDTH 7 0
BBX 7 16 0 -3
BITMAP
00
00
00
F8
FC
CC
CC
F8
F8
CC
CC
FC
F8
00
00
00
ENDCHAR
STARTCHAR U+0043 latin capital letter c
ENCODING 67
SWIDTH 560 0
DWIDTH 7 0
BBX 7 16 0 -3
BITMAP
00
00
00
78
FC
CC
C0
C0
C0
C0
CC
FC
78
00
00
00
ENDCHAR
STARTCHAR U+0044 latin capital letter d
ENCODING 68
SWIDTH 560 0
DWIDTH 7 0
BBX 7 16 0 -3
BITMAP
00
00
00
F0
F8
CC
CC
CC
CC
CC
CC
F8
F0
00
00
00
ENDCHAR
STARTCHAR U+0045 latin capital letter e
ENCODING 69
SWIDTH 560 0
DWIDTH 7 0
BBX 7 16 0 -3
BITMAP
00
00
00
FC
FC
C0
C0
F8
F8
C0
C0
FC
FC
00
00
00
ENDCHAR
STARTCHAR U+0046 latin capital letter f
ENCODING 70
SWIDTH 560 0
DWIDTH 7 0
BBX 7 16 0 -3
BITMAP
00
00
00
FC
FC
C0
C0
F8
F8
C0
C0
C0
C0
00
00
00
ENDCHAR
STARTCHAR U+0047 latin capital letter g
ENCODING 71
SWIDTH 560 0
DWIDTH 7 0
BBX 7 16 0 -3
BITMAP
00
00
00
78
FC
CC
C0
C0
DC
CC
CC
FC
78
00
00
00
ENDCHAR
STARTCHAR U+0048 latin capital letter h
ENCODING 72
SWIDTH 560 0
DWIDTH 7 0
BBX 7 16 0 -3
BITMAP
00
00
00
CC
CC
CC
CC
FC
FC
CC
CC
CC
CC
00
00
00
ENDCHAR
STARTCHAR U+0049 latin capital letter i
ENCODING 73
SWIDTH 560 0
DWIDTH 7 0
BBX 7 16 0 -3
BITMAP
00
00
00
FC
FC
30
30
30
30
30
30
FC
FC
00
00
00
ENDCHAR
STARTCHAR U+004A latin capital letter j
ENCODING 74
SWIDTH 560 0
DWIDTH 7 0
BBX 7 16 0 -3
BITMAP
00
00
00
3C
3C
0C
0C
0C
0C
0C
CC
FC
78
00
00
00
ENDCHAR
STARTCHAR U+004B latin capital letter k
ENCODING 75
SWIDTH 560 0
DWIDTH 7 0
BBX 7 16 0 -3
BITMAP
00
00
00
CC
CC
CC
D8
F0
F0
D8
CC
CC
CC
00
00
00
ENDCHAR
STARTCHAR U+004C latin capital letter l
ENCODING 76
SWIDTH 560 0
DWIDTH 7 0
BBX 7 16 0 -3
BITMAP
00
00
00
C0
C0
C0
C0
C0
C0
C0
C0
FC
FC
00
00
00
ENDCHAR
STARTCHAR U+004D latin capital letter m
ENCODING 77
SWIDTH 560 0
DWIDTH 7 0
BBX 7 16 0 -3
BITMAP
00
00
00
84
CC
FC
FC
FC
CC
CC
CC
CC
CC
00
00
00
ENDCHAR
STARTCHAR U+004E latin capital letter n
ENCODING 78
SWIDTH 560 0
DWIDTH 7 0
BBX 7 16 0 -3
BITMAP
00
00
00
8C
CC
CC
EC
EC
DC
DC
CC
CC
C4
00
00
00
ENDCHAR
STARTCHAR U+004F latin capital letter o
ENCODING 79
SWIDTH 560 0
DWIDTH 7 0
BBX 7 16 0 -3
BITMAP
00
00
00
78
FC
CC
CC
CC
CC
CC
CC
FC
78
00
00
00
ENDCHAR
STARTCHAR U+0050 latin capital letter p
ENCODING 80
SWIDTH 560 0
DWIDTH 7 0
BBX 7 16 0 -3
BITMAP
00
00
00
F8
FC
CC
CC
FC
F8
C0
C0
C0
C0
00
00
00
ENDCHAR
STARTCHAR U+0051 latin capital letter q
ENCODING 81
SWIDTH 560 0
DWIDTH 7 0
BBX 7 16 0 -3
BITMAP
00
00
00
78
FC
CC
CC
CC
CC
CC
DC
FC
78
0C
00
00
ENDCHAR
STARTCHAR U+0052 latin capital letter r
ENCODING 82
SWIDTH 560 0
DWIDTH 7 0
BBX 7 16 0 -3
BITMAP
00
00
00
F8
FC
CC
CC
FC
F8
D8
CC
CC
CC
00
00
00
ENDCHAR
STARTCHAR U+0053 latin capital letter s
ENCODING 83
SWIDTH 560 0
DWIDTH 7 0
BBX 7 16 0 -3
BITMAP
00
00
00
78
FC
CC
C0
70
38
0C
CC
FC
78
00
00
00
ENDCHAR
STARTCHAR U+0054 latin capital letter t
ENCODING 84
SWIDTH 560 0
DWIDTH 7 0
BBX 7 16 0 -3
BITMAP
00
00
00
FC
FC
30
30
30
30
30
30
30
30
00
00
00
ENDCHAR
STARTCHAR U+0055 latin capital letter u
ENCODING 85
SWIDTH 560 0
DWIDTH 7 0
BBX 7 16 0 -3
BITMAP
00
00
00
CC
CC
CC
CC
CC
CC
CC
CC
FC
78
00
00
00
ENDCHAR
STARTCHAR U+0056 latin capital letter v
ENCODING 86
SWIDTH 560 0
DWIDTH 7 0
BBX 7 16 0 -3
BITMAP
00
00
00
CC
CC
CC
CC
CC
CC
78
78
30
30
00
00
00
ENDCHAR
STARTCHAR U+0057 latin capital letter w
ENCODING 87
SWIDTH 560 0
DWIDTH 7 0
BBX 7 16 0 -3
BITMAP
00
00
00
84
CC
CC
CC
CC
FC
FC
FC
CC
84
00
00
00
ENDCHAR
STARTCHAR U+0058 latin capital letter x
ENCODING 88
SWIDTH 560 0
DWIDTH 7 0
BBX 7 16 0 -3
BITMAP
00
00
00
CC
CC
78
78
30
30
78
78
CC
CC
00
00
00
ENDCHAR
STARTCHAR U+0059 latin capital letter y
ENCODING 89
SWIDTH 560 0
DWIDTH 7 0
BBX 7 16 0 -3
BITMAP
00
00
00
CC
CC
CC
CC
FC
78
30
30
30
30
00
00
00
ENDCHAR
STARTCHAR U+005A latin capital letter z
ENCODING 90
SWIDTH 560 0
DWIDTH 7 0
BBX 7 16 0 -3
BITMAP
00
00
00
FC
FC
0C
18
30
30
60
C0
FC
FC
00
00
00
ENDCHAR
STARTCHAR U+005B left square bracket
ENCODING 91
SWIDTH 560 0
DWIDTH 7 0
BBX 7 16 0 -3
BITMAP
00
00
78
78
60
60
60
60
60
60
60
60
60
78
78
00
ENDCHAR
STARTCHAR U+005C reverse solidus
ENCODING 92
SWIDTH 560 0
DWIDTH 7 0
BBX 7 16 0 -3
BITMAP
00
00
80
C0
C0
60
60
30
30
18
18
0C
0C
04
00
00
ENDCHAR
STARTCHAR U+005D right square bracket
ENCODING 93
SWIDTH 560 0
DWIDTH 7 0
BBX 7 16 0 -3
BITMAP
00
00
78
78
18
18
18
18
18
18
18
18
18
78
78
00
ENDCHAR
STARTCHAR U+005E circumflex accent
ENCODING 94
SWIDTH 560 0
DWIDTH 7 0
BBX 7 16 0 -3
BITMAP
00
00
30
78
CC
84
00
00
00
00
00
00
00
00
00
00
ENDCHAR
STARTCHAR U+005F low line
ENCODING 95
SWIDTH 560 0
DWIDTH 7 0
BBX 7 16 0 -3
BITMAP
00
00
00
00
00
00
00
00
00
00
00
00
FC
FC
00
00
ENDCHAR
STARTCHAR U+0060 grave accent
ENCODING 96
SWIDTH 560 0
DWIDTH 7 0
BBX 7 16 0 -3
BITMAP
00
00
70
38
18
0C
00
00
00
00
00
00
00
00
00
00
ENDCHAR
STARTCHAR U+0061 latin small letter a
ENCODING 97
SWIDTH 560 0
DWIDTH 7 0
BBX 7 16 0 -3
BITMAP
00
00
00
00
00
78
7C
0C
7C
FC
CC
FC
74
00
00
00
ENDCHAR
STARTCHAR U+0062 latin small letter b
ENCODING 98
SWIDTH 560 0
DWIDTH 7 0
BBX 7 16 0 -3
BITMAP
00
00
00
C0
C0
D8
FC
EC
CC
CC
EC
FC
B8
00
00
00
ENDCHAR
STARTCHAR U+0063 latin small letter c
ENCODING 99
SWIDTH 560 0
DWIDTH 7 0
BBX 7 16 0 -3
BITMAP
00
00
00
00
00
78
FC
CC
C0
C0
CC
FC
78
00
00
00
ENDCHAR
STARTCHAR U+0064 latin small letter d
ENCODING 100
SWIDTH 560 0
DWIDTH 7 0
BBX 7 16 0 -3
BITMAP
00
00
00
0C
0C
6C
FC
DC
CC
CC
DC
FC
74
00
00
00
ENDCHAR
STARTCHAR U+0065 latin small letter e
ENCODING 101
SWIDTH 560 0
DWIDTH 7 0
BBX 7 16 0 -3
BITMAP
00
00
00
00
00
78
FC
CC
CC
FC
C0
E0
78
00
00
00
ENDCHAR
STARTCHAR U+0066 latin small letter f
ENCODING 102
SWIDTH 560 0
DWIDTH 7 0
BBX 7 16 0 -3
BITMAP
00
00
00
38
7C
64
60
F8
F8
60
60
60
60
00
00
00
ENDCHAR
STARTCHAR U+0067 latin small letter g
ENCODING 103
SWIDTH 560 0
DWIDTH 7 0
BBX 7 16 0 -3
BITMAP
00
00
00
00
00
6C
FC
CC
CC
CC
FC
6C
0C
CC
FC
78
ENDCHAR
STARTCHAR U+0068 latin small letter h
ENCODING 104
SWIDTH 560 0
DWIDTH 7 0
BBX 7 16 0 -3
BITMAP
00
00
00
C0
C0
D8
FC
EC
CC
CC
CC
CC
CC
00
00
00
ENDCHAR
STARTCHAR U+0069 latin small letter i
ENCODING 105
SWIDTH 560 0
DWIDTH 7 0
BBX 7 16 0 -3
BITMAP
00
00
30
30
00
70
70
30
30
30
30
78
78
00
00
00
ENDCHAR
STARTCHAR U+006A latin small letter j
ENCODING 106
SWIDTH 560 0
DWIDTH 7 0
BBX 7 16 0 -3
BITMAP
00
00
18
18
00
38
38
18
18
18
18
18
98
F8
70
00
ENDCHAR
STARTCHAR U+006B latin small letter k
ENCODING 107
SWIDTH 560 0
DWIDTH 7 0
BBX 7 16 0 -3
BITMAP
00
00
00
C0
C0
CC
CC
D8
F0
F0
D8
CC
CC
00
00
00
ENDCHAR
STARTCHAR U+006C latin small letter l
ENCODING 108
SWIDTH 560 0
DWIDTH 7 0
BBX 7 16 0 -3
BITMAP
00
00
00
70
70
30
30
30
30
30
30
78
78
00
00
00
ENDCHAR
STARTCHAR U+006D latin small letter m
ENCODING 109
SWIDTH 560 0
DWIDTH 7 0
BBX 7 16 0 -3
BITMAP
00
00
00
00
00
CC
FC
FC
FC
CC
CC
CC
CC
00
00
00
ENDCHAR
STARTCHAR U+006E latin small letter n
ENCODING 110
SWIDTH 560 0
DWIDTH 7 0
BBX 7 16 0 -3
BITMAP
00
00
00
00
00
B8
FC
EC
CC
CC
CC
CC
CC
00
00
00
ENDCHAR
STARTCHAR U+006F latin small letter o
ENCODING 111
SWIDTH 560 0
DWIDTH 7 0
BBX 7 16 0 -3
BITMAP
00
00
00
00
00
78
FC
CC
CC
CC
CC
FC
78
00
00
00
ENDCHAR
STARTCHAR U+0070 latin small letter p
ENCODING 112
SWIDTH 560 0
DWIDTH 7 0
BBX 7 16 0 -3
BITMAP
00
00
00
00
00
B8
FC
CC
CC
CC
FC
D8
C0
C0
C0
C0
ENDCHAR
STARTCHAR U+0071 latin small letter q
ENCODING 113
SWIDTH 560 0
DWIDTH 7 0
BBX 7 16 0 -3
BITMAP
00
00
00
00
00
74
FC
CC
CC
CC
FC
6C
0C
0C
0C
0C
ENDCHAR
STARTCHAR U+0072 latin small letter r
ENCODING 114
SWIDTH 560 0
DWIDTH 7 0
BBX 7 16 0 -3
BITMAP
00
00
00
00
00
B8
FC
E4
C0
C0
C0
C0
C0
00
00
00
ENDCHAR
STARTCHAR U+0073 latin small letter s
ENCODING 115
SWIDTH 560 0
DWIDTH 7 0
BBX 7 16 0 -3
BITMAP
00
00
00
00
00
78
EC
C0
F8
7C
0C
DC
78
00
00
00
ENDCHAR
STARTCHAR U+0074 latin small letter t
ENCODING 116
SWIDTH 560 0
DWIDTH 7 0
BBX 7 16 0 -3
BITMAP
00
00
00
60
60
F8
F8
60
60
60
64
7C
38
00
00
00
ENDCHAR
STARTCHAR U+0075 latin small letter u
ENCODING 117
SWIDTH 560 0
DWIDTH 7 0
BBX 7 16 0 -3
BITMAP
00
00
00
00
00
CC
CC
CC
CC
CC
DC
FC
74
00
00
00
ENDCHAR
STARTCHAR U+0076 latin small letter v
ENCODING 118
SWIDTH 560 0
DWIDTH 7 0
BBX 7 16 0 -3
BITMAP
00
00
00
00
00
CC
CC
CC
CC
78
78
30
30
00
00
00
ENDCHAR
STARTCHAR U+0077 latin small letter w
ENCODING 119
SWIDTH 560 0
DWIDTH 7 0
BBX 7 16 0 -3
BITMAP
00
00
00
00
00
CC
CC
CC
CC
FC
FC
FC
CC
00
00
00
ENDCHAR
STARTCHAR U+0078 latin small letter x
ENCODING 120
SWIDTH 560 0
DWIDTH 7 0
BBX 7 16 0 -3
BITMAP
00
00
00
00
00
CC
CC
78
30
30
78
CC
CC
00
00
00
ENDCHAR
STARTCHAR U+0079 latin small letter y
ENCODING 121
SWIDTH 560 0
DWIDTH 7 0
BBX 7 16 0 -3
BITMAP
00
00
00
00
00
CC
CC
CC
CC
DC
FC
6C
0C
8C
FC
78
ENDCHAR
STARTCHAR U+007A latin small letter z
ENCODING 122
SWIDTH 560 0
DWIDTH 7 0
BBX 7 16 0 -3
BITMAP
00
00
00
00
00
FC
FC
0C
38
70
C0
FC
FC
00
00
00
ENDCHAR
STARTCHAR U+007B left curly bracket
ENCODING 123
SWIDTH 560 0
DWIDTH 7 0
BBX 7 16 0 -3
BITMAP
00
1C
38
30
30
30
30
E0
E0
30
30
30
30
38
1C
00
ENDCHAR
STARTCHAR U+007C vertical line
ENCODING 124
SWIDTH 560 0
DWIDTH 7 0
BBX 7 16 0 -3
BITMAP
00
00
30
30
30
30
30
30
30
30
30
30
30
30
00
00
ENDCHAR
STARTCHAR U+007D right curly bracket
ENCODING 125
SWIDTH 560 0
DWIDTH 7 0
BBX 7 16 0 -3
BITMAP
00
E0
70
30
30
30
30
1C
1C
30
30
30
30
70
E0
00
ENDCHAR
STARTCHAR U+007E tilde
ENCODING 126
SWIDTH 560 0
DWIDTH 7 0
BBX 7 16 0 -3
BITMAP
00
00
00
00
6C
FC
D8
00
00
00
00
00
00
00
00
00
ENDCHAR
STARTCHAR U+007F delete
ENCODING 127
SWIDTH 560 0
DWIDTH 7 0
BBX 7 16 0 -3
BITMAP
00
C0
A0
A0
A0
C0
38
20
30
20
38
00
08
08
08
0E
ENDCHAR
STARTCHAR U+00A0 no-break space
ENCODING 160
SWIDTH 560 0
DWIDTH 7 0
BBX 7 16 0 -3
BITMAP
00
00
00
00
00
00
00
00
00
00
00
00
00
00
00
00
ENDCHAR
STARTCHAR U+00A1 inverted exclamation mark
ENCODING 161
SWIDTH 560 0
DWIDTH 7 0
BBX 7 16 0 -3
BITMAP
00
00
00
00
00
30
30
00
30
30
30
30
30
30
30
00
ENDCHAR
STARTCHAR U+00A2 cent sign
ENCODING 162
SWIDTH 560 0
DWIDTH 7 0
BBX 7 16 0 -3
BITMAP
00
00
00
00
18
7C
D4
D0
D0
D0
D4
7C
18
00
00
00
ENDCHAR
STARTCHAR U+00A3 pound sign
ENCODING 163
SWIDTH 560 0
DWIDTH 7 0
BBX 7 16 0 -3
BITMAP
00
00
00
38
7C
64
60
F8
F8
60
60
FC
FC
00
00
00
ENDCHAR
STARTCHAR U+00A4 currency sign
ENCODING 164
SWIDTH 560 0
DWIDTH 7 0
BBX 7 16 0 -3
BITMAP
00
00
00
00
00
00
CC
FC
48
48
FC
CC
00
00
00
00
ENDCHAR
STARTCHAR U+00A5 yen sign
ENCODING 165
SWIDTH 560 0
DWIDTH 7 0
BBX 7 16 0 -3
BITMAP
00
00
00
84
84
CC
78
30
FC
30
FC
30
30
00
00
00
ENDCHAR
STARTCHAR U+00A6 broken bar
ENCODING 166
SWIDTH 560 0
DWIDTH 7 0
BBX 7 16 0 -3
BITMAP
00
00
00
30
30
30
30
30
00
30
30
30
30
30
00
00
ENDCHAR
STARTCHAR U+00A7 section sign
ENCODING 167
SWIDTH 560 0
DWIDTH 7 0
BBX 7 16 0 -3
BITMAP
00
00
00
3C
7C
60
38
6C
44
6C
38
0C
7C
78
00
00
ENDCHAR
STARTCHAR U+00A8 diaeresis
ENCODING 168
SWIDTH 560 0
DWIDTH 7 0
BBX 7 16 0 -3
BITMAP
00
00
00
CC
CC
00
00
00
00
00
00
00
00
00
00
00
ENDCHAR
STARTCHAR U+00A9 copyright sign
ENCODING 169
SWIDTH 560 0
DWIDTH 7 0
BBX 7 16 0 -3
BITMAP
00
00
38
7C
C6
9A
B2
A2
B2
9A
C6
7C
38
00
00
00
ENDCHAR
STARTCHAR U+00AA feminine ordinal indicator
ENCODING 170
SWIDTH 560 0
DWIDTH 7 0
BBX 7 16 0 -3
BITMAP
00
00
38
3C
0C
3C
6C
7C
34
00
7C
7C
00
00
00
00
ENDCHAR
STARTCHAR U+00AB left-pointing double angle quotation mark
ENCODING 171
SWIDTH 560 0
DWIDTH 7 0
BBX 7 16 0 -3
BITMAP
00
00
00
00
00
00
1A
36
6C
D8
6C
36
1A
00
00
00
ENDCHAR
STARTCHAR U+00AC not sign
ENCODING 172
SWIDTH 560 0
DWIDTH 7 0
BBX 7 16 0 -3
BITMAP
00
00
00
00
00
00
00
FC
FC
0C
0C
0C
00
00
00
00
ENDCHAR
STARTCHAR U+00AD soft hyphen
ENCODING 173
SWIDTH 560 0
DWIDTH 7 0
BBX 7 16 0 -3
BITMAP
00
00
00
00
00
00
00
38
38
00
00
00
00
00
00
00
ENDCHAR
STARTCHAR U+00AE registered sign
ENCODING 174
SWIDTH 560 0
DWIDTH 7 0
BBX 7 16 0 -3
BITMAP
00
00
38
7C
C6
AA
BA
B2
B2
B2
C6
7C
38
00
00
00
ENDCHAR
STARTCHAR U+00AF macron
ENCODING 175
SWIDTH 560 0
DWIDTH 7 0
BBX 7 16 0 -3
BITMAP
00
00
FC
FC
00
00
00
00
00
00
00
00
00
00
00
00
ENDCHAR
STARTCHAR U+00B0 degree sign
ENCODING 176
SWIDTH 560 0
DWIDTH 7 0
BBX 7 16 0 -3
BITMAP
00
00
00
78
FC
CC
CC
FC
78
00
00
00
00
00
00
00
ENDCHAR
STARTCHAR U+00B1 plus-minus sign
ENCODING 177
SWIDTH 560 0
DWIDTH 7 0
BBX 7 16 0 -3
BITMAP
00
00
00
30
30
30
FC
FC
30
30
30
00
FC
FC
00
00
ENDCHAR
STARTCHAR U+00B2 superscript two
ENCODING 178
SWIDTH 560 0
DWIDTH 7 0
BBX 7 16 0 -3
BITMAP
00
00
38
7C
0C
18
30
7C
7C
00
00
00
00
00
00
00
ENDCHAR
STARTCHAR U+00B3 superscript three
ENCODING 179
SWIDTH 560 0
DWIDTH 7 0
BBX 7 16 0 -3
BITMAP
00
00
7C
0C
38
0C
4C
7C
38
00
00
00
00
00
00
00
ENDCHAR
STARTCHAR U+00B4 acute accent
ENCODING 180
SWIDTH 560 0
DWIDTH 7 0
BBX 7 16 0 -3
BITMAP
00
00
1C
38
30
60
00
00
00
00
00
00
00
00
00
00
ENDCHAR
STARTCHAR U+00B5 micro sign
ENCODING 181
SWIDTH 560 0
DWIDTH 7 0
BBX 7 16 0 -3
BITMAP
00
00
00
00
00
00
D8
D8
D8
D8
FC
F4
C0
C0
00
00
ENDCHAR
STARTCHAR U+00B6 pilcrow sign
ENCODING 182
SWIDTH 560 0
DWIDTH 7 0
BBX 7 16 0 -3
BITMAP
00
00
00
7E
D6
96
96
D6
76
16
16
16
16
00
00
00
ENDCHAR
STARTCHAR U+00B7 middle dot
ENCODING 183
SWIDTH 560 0
DWIDTH 7 0
BBX 7 16 0 -3
BITMAP
00
00
00
00
00
00
00
30
78
30
00
00
00
00
00
00
ENDCHAR
STARTCHAR U+00B8 cedilla
ENCODING 184
SWIDTH 560 0
DWIDTH 7 0
BBX 7 16 0 -3
BITMAP
00
00
00
00
00
00
00
00
00
00
00
60
30
B0
60
00
ENDCHAR
STARTCHAR U+00B9 superscript one
ENCODING 185
SWIDTH 560 0
DWIDTH 7 0
BBX 7 16 0 -3
BITMAP
00
00
1C
3C
6C
0C
0C
0C
00
00
00
00
00
00
00
00
ENDCHAR
STARTCHAR U+00BA masculine ordinal indicator
ENCODING 186
SWIDTH 560 0
DWIDTH 7 0
BBX 7 16 0 -3
BITMAP
00
00
00
78
FC
CC
CC
FC
78
00
FC
FC
00
00
00
00
ENDCHAR
STARTCHAR U+00BB right-pointing double angle quotation mark
ENCODING 187
SWIDTH 560 0
DWIDTH 7 0
BBX 7 16 0 -3
BITMAP
00
00
00
00
00
00
B0
D8
6C
36
6C
D8
B0
00
00
00
ENDCHAR
STARTCHAR U+00BC vulgar fraction one quarter
ENCODING 188
SWIDTH 560 0
DWIDTH 7 0
BBX 7 16 0 -3
BITMAP
00
00
60
E0
60
60
60
60
06
0E
16
26
3E
06
00
00
ENDCHAR
STARTCHAR U+00BD vulgar fraction one half
ENCODING 189
SWIDTH 560 0
DWIDTH 7 0
BBX 7 16 0 -3
BITMAP
00
00
60
E0
60
60
60
60
1C
3E
06
0C
18
3E
3E
00
ENDCHAR
STARTCHAR U+00BE vulgar fraction three quarters
ENCODING 190
SWIDTH 560 0
DWIDTH 7 0
BBX 7 16 0 -3
BITMAP
00
00
F8
18
70
18
98
F8
76
0E
16
26
3E
06
00
00
ENDCHAR
STARTCHAR U+00BF inverted question mark
ENCODING 191
SWIDTH 560 0
DWIDTH 7 0
BBX 7 16 0 -3
BITMAP
00
00
00
00
00
30
30
00
30
30
60
C0
C4
FC
78
00
ENDCHAR
STARTCHAR U+00C0 latin capital letter a with grave
ENCODING 192
SWIDTH 560 0
DWIDTH 7 0
BBX 7 16 0 -3
BITMAP
60
30
10
00
78
FC
CC
CC
FC
FC
CC
CC
CC
00
00
00
ENDCHAR
STARTCHAR U+00C1 latin capital letter a with acute
ENCODING 193
SWIDTH 560 0
DWIDTH 7 0
BBX 7 16 0 -3
BITMAP
18
30
20
00
78
FC
CC
CC
FC
FC
CC
CC
CC
00
00
00
ENDCHAR
STARTCHAR U+00C2 latin capital letter a with circumflex
ENCODING 194
SWIDTH 560 0
DWIDTH 7 0
BBX 7 16 0 -3
BITMAP
30
78
CC
00
78
FC
CC
CC
FC
FC
CC
CC
CC
00
00
00
ENDCHAR
STARTCHAR U+00C3 latin capital letter a with tilde
ENCODING 195
SWIDTH 560 0
DWIDTH 7 0
BBX 7 16 0 -3
BITMAP
74
B8
00
78
FC
CC
CC
CC
FC
FC
CC
CC
CC
00
00
00
ENDCHAR
STARTCHAR U+00C4 latin capital letter a with diaeresis
ENCODING 196
SWIDTH 560 0
DWIDTH 7 0
BBX 7 16 0 -3
BITMAP
CC
CC
00
78
FC
CC
CC
CC
FC
FC
CC
CC
CC
00
00
00
ENDCHAR
STARTCHAR U+00C5 latin capital letter a with ring above
ENCODING 197
SWIDTH 560 0
DWIDTH 7 0
BBX 7 16 0 -3
BITMAP
78
CC
78
00
78
FC
CC
CC
FC
FC
CC
CC
CC
00
00
00
ENDCHAR
STARTCHAR U+00C6 latin capital letter ae
ENCODING 198
SWIDTH 560 0
DWIDTH 7 0
BBX 7 16 0 -3
BITMAP
00
00
00
7C
FC
90
90
FC
FC
90
90
9C
9C
00
00
00
ENDCHAR
STARTCHAR U+00C7 latin capital letter c with cedilla
ENCODING 199
SWIDTH 560 0
DWIDTH 7 0
BBX 7 16 0 -3
BITMAP
00
00
00
78
FC
CC
C0
C0
C0
C0
CC
FC
78
10
58
30
ENDCHAR
STARTCHAR U+00C8 latin capital letter e with grave
ENCODING 200
SWIDTH 560 0
DWIDTH 7 0
BBX 7 16 0 -3
BITMAP
60
30
10
00
FC
FC
C0
F8
F8
C0
C0
FC
FC
00
00
00
ENDCHAR
STARTCHAR U+00C9 latin capital letter e with acute
ENCODING 201
SWIDTH 560 0
DWIDTH 7 0
BBX 7 16 0 -3
BITMAP
18
30
20
00
FC
FC
C0
F8
F8
C0
C0
FC
FC
00
00
00
ENDCHAR
STARTCHAR U+00CA latin capital letter e with circumflex
ENCODING 202
SWIDTH 560 0
DWIDTH 7 0
BBX 7 16 0 -3
BITMAP
30
78
CC
00
FC
FC
C0
F8
F8
C0
C0
FC
FC
00
00
00
ENDCHAR
STARTCHAR U+00CB latin capital letter e with diaeresis
ENCODING 203
SWIDTH 560 0
DWIDTH 7 0
BBX 7 16 0 -3
BITMAP
CC
CC
00
FC
FC
C0
C0
F8
F8
C0
C0
FC
FC
00
00
00
ENDCHAR
STARTCHAR U+00CC latin capital letter i with grave
ENCODING 204
SWIDTH 560 0
DWIDTH 7 0
BBX 7 16 0 -3
BITMAP
60
30
10
00
FC
FC
30
30
30
30
30
FC
FC
00
00
00
ENDCHAR
STARTCHAR U+00CD latin capital letter i with acute
ENCODING 205
SWIDTH 560 0
DWIDTH 7 0
BBX 7 16 0 -3
BITMAP
18
30
20
00
FC
FC
30
30
30
30
30
FC
FC
00
00
00
ENDCHAR
STARTCHAR U+00CE latin capital letter i with circumflex
ENCODING 206
SWIDTH 560 0
DWIDTH 7 0
BBX 7 16 0 -3
BITMAP
30
78
CC
00
FC
FC
30
30
30
30
30
FC
FC
00
00
00
ENDCHAR
STARTCHAR U+00CF latin capital letter i with diaeresis
ENCODING 207
SWIDTH 560 0
DWIDTH 7 0
BBX 7 16 0 -3
BITMAP
CC
CC
00
FC
FC
30
30
30
30
30
30
FC
FC
00
00
00
ENDCHAR
STARTCHAR U+00D0 latin capital letter eth
ENCODING 208
SWIDTH 560 0
DWIDTH 7 0
BBX 7 16 0 -3
BITMAP
00
00
00
78
7C
66
66
F6
F6
66
66
7C
78
00
00
00
ENDCHAR
STARTCHAR U+00D1 latin capital letter n with tilde
ENCODING 209
SWIDTH 560 0
DWIDTH 7 0
BBX 7 16 0 -3
BITMAP
74
B8
00
8C
CC
CC
EC
EC
DC
DC
CC
CC
C4
00
00
00
ENDCHAR
STARTCHAR U+00D2 latin capital letter o with grave
ENCODING 210
SWIDTH 560 0
DWIDTH 7 0
BBX 7 16 0 -3
BITMAP
60
30
10
00
78
FC
CC
CC
CC
CC
CC
FC
78
00
00
00
ENDCHAR
STARTCHAR U+00D3 latin capital letter o with acute
ENCODING 211
SWIDTH 560 0
DWIDTH 7 0
BBX 7 16 0 -3
BITMAP
18
30
20
00
78
FC
CC
CC
CC
CC
CC
FC
78
00
00
00
ENDCHAR
STARTCHAR U+00D4 latin capital letter o with circumflex
ENCODING 212
SWIDTH 560 0
DWIDTH 7 0
BBX 7 16 0 -3
BITMAP
30
78
CC
00
78
FC
CC
CC
CC
CC
CC
FC
78
00
00
00
ENDCHAR
STARTCHAR U+00D5 latin capital letter o with tilde
ENCODING 213
SWIDTH 560 0
DWIDTH 7 0
BBX 7 16 0 -3
BITMAP
74
B8
00
78
FC
CC
CC
CC
CC
CC
CC
FC
78
00
00
00
ENDCHAR
STARTCHAR U+00D6 latin capital letter o with diaeresis
ENCODING 214
SWIDTH 560 0
DWIDTH 7 0
BBX 7 16 0 -3
BITMAP
CC
CC
00
78
FC
CC
CC
CC
CC
CC
CC
FC
78
00
00
00
ENDCHAR
STARTCHAR U+00D7 multiplication sign
ENCODING 215
SWIDTH 560 0
DWIDTH 7 0
BBX 7 16 0 -3
BITMAP
00
00
00
00
00
84
CC
78
30
78
CC
84
00
00
00
00
ENDCHAR
STARTCHAR U+00D8 latin capital letter o with stroke
ENCODING 216
SWIDTH 560 0
DWIDTH 7 0
BBX 7 16 0 -3
BITMAP
00
00
04
7C
F8
CC
DC
DC
EC
EC
CC
7C
F8
80
00
00
ENDCHAR
STARTCHAR U+00D9 latin capital letter u with grave
ENCODING 217
SWIDTH 560 0
DWIDTH 7 0
BBX 7 16 0 -3
BITMAP
60
30
10
C4
CC
CC
CC
CC
CC
CC
CC
FC
78
00
00
00
ENDCHAR
STARTCHAR U+00DA latin capital letter u with acute
ENCODING 218
SWIDTH 560 0
DWIDTH 7 0
BBX 7 16 0 -3
BITMAP
18
30
20
8C
CC
CC
CC
CC
CC
CC
CC
FC
78
00
00
00
ENDCHAR
STARTCHAR U+00DB latin capital letter u with circumflex
ENCODING 219
SWIDTH 560 0
DWIDTH 7 0
BBX 7 16 0 -3
BITMAP
30
78
CC
00
CC
CC
CC
CC
CC
CC
CC
FC
78
00
00
00
ENDCHAR
STARTCHAR U+00DC latin capital letter u with diaeresis
ENCODING 220
SWIDTH 560 0
DWIDTH 7 0
BBX 7 16 0 -3
BITMAP
CC
CC
00
CC
CC
CC
CC
CC
CC
CC
CC
FC
78
00
00
00
ENDCHAR
STARTCHAR U+00DD latin capital letter y with acute
ENCODING 221
SWIDTH 560 0
DWIDTH 7 0
BBX 7 16 0 -3
BITMAP
18
30
20
8C
CC
CC
CC
FC
78
30
30
30
30
00
00
00
ENDCHAR
STARTCHAR U+00DE latin capital letter thorn
ENCODING 222
SWIDTH 560 0
DWIDTH 7 0
BBX 7 16 0 -3
BITMAP
00
00
00
E0
C0
F8
FC
CC
CC
FC
F8
C0
E0
00
00
00
ENDCHAR
STARTCHAR U+00DF latin small letter sharp s
ENCODING 223
SWIDTH 560 0
DWIDTH 7 0
BBX 7 16 0 -3
BITMAP
00
00
00
70
C8
C8
D0
D0
C8
C4
C4
D4
C8
C0
00
00
ENDCHAR
STARTCHAR U+00E0 latin small letter a with grave
ENCODING 224
SWIDTH 560 0
DWIDTH 7 0
BBX 7 16 0 -3
BITMAP
00
60
30
10
00
78
7C
0C
7C
FC
CC
FC
74
00
00
00
ENDCHAR
STARTCHAR U+00E1 latin small letter a with acute
ENCODING 225
SWIDTH 560 0
DWIDTH 7 0
BBX 7 16 0 -3
BITMAP
00
18
30
20
00
78
7C
0C
7C
FC
CC
FC
74
00
00
00
ENDCHAR
STARTCHAR U+00E2 latin small letter a with circumflex
ENCODING 226
SWIDTH 560 0
DWIDTH 7 0
BBX 7 16 0 -3
BITMAP
00
30
78
CC
00
78
7C
0C
7C
FC
CC
FC
74
00
00
00
ENDCHAR
STARTCHAR U+00E3 latin small letter a with tilde
ENCODING 227
SWIDTH 560 0
DWIDTH 7 0
BBX 7 16 0 -3
BITMAP
00
00
74
B8
00
78
7C
0C
7C
FC
CC
FC
74
00
00
00
ENDCHAR
STARTCHAR U+00E4 latin small letter a with diaeresis
ENCODING 228
SWIDTH 560 0
DWIDTH 7 0
BBX 7 16 0 -3
BITMAP
00
00
CC
CC
00
78
7C
0C
7C
FC
CC
FC
74
00
00
00
ENDCHAR
STARTCHAR U+00E5 latin small letter a with ring above
ENCODING 229
SWIDTH 560 0
DWIDTH 7 0
BBX 7 16 0 -3
BITMAP
00
78
CC
78
00
78
7C
0C
7C
FC
CC
FC
74
00
00
00
ENDCHAR
STARTCHAR U+00E6 latin small letter ae
ENCODING 230
SWIDTH 560 0
DWIDTH 7 0
BBX 7 16 0 -3
BITMAP
00
00
00
00
00
CC
7E
32
F2
9E
98
FC
66
00
00
00
ENDCHAR
STARTCHAR U+00E7 latin small letter c with cedilla
ENCODING 231
SWIDTH 560 0
DWIDTH 7 0
BBX 7 16 0 -3
BITMAP
00
00
00
00
00
78
FC
CC
C0
C0
CC
FC
78
10
58
30
ENDCHAR
STARTCHAR U+00E8 latin small letter e with grave
ENCODING 232
SWIDTH 560 0
DWIDTH 7 0
BBX 7 16 0 -3
BITMAP
00
60
30
10
00
78
FC
CC
CC
FC
C0
E0
78
00
00
00
ENDCHAR
STARTCHAR U+00E9 latin small letter e with acute
ENCODING 233
SWIDTH 560 0
DWIDTH 7 0
BBX 7 16 0 -3
BITMAP
00
18
30
20
00
78
FC
CC
CC
FC
C0
E0
78
00
00
00
ENDCHAR
STARTCHAR U+00EA latin small letter e with circumflex
ENCODING 234
SWIDTH 560 0
DWIDTH 7 0
BBX 7 16 0 -3
BITMAP
00
30
78
CC
00
78
FC
CC
CC
FC
C0
E0
78
00
00
00
ENDCHAR
STARTCHAR U+00EB latin small letter e with diaeresis
ENCODING 235
SWIDTH 560 0
DWIDTH 7 0
BBX 7 16 0 -3
BITMAP
00
00
CC
CC
00
78
FC
CC
CC
FC
C0
E0
78
00
00
00
ENDCHAR
STARTCHAR U+00EC latin small letter i with grave
ENCODING 236
SWIDTH 560 0
DWIDTH 7 0
BBX 7 16 0 -3
BITMAP
00
60
30
10
00
70
70
30
30
30
30
78
78
00
00
00
ENDCHAR
STARTCHAR U+00ED latin small letter i with acute
ENCODING 237
SWIDTH 560 0
DWIDTH 7 0
BBX 7 16 0 -3
BITMAP
00
18
30
20
00
70
70
30
30
30
30
78
78
00
00
00
ENDCHAR
STARTCHAR U+00EE latin small letter i with circumflex
ENCODING 238
SWIDTH 560 0
DWIDTH 7 0
BBX 7 16 0 -3
BITMAP
00
30
78
CC
00
70
70
30
30
30
30
78
78
00
00
00
ENDCHAR
STARTCHAR U+00EF latin small letter i with diaeresis
ENCODING 239
SWIDTH 560 0
DWIDTH 7 0
BBX 7 16 0 -3
BITMAP
00
00
CC
CC
00
70
70
30
30
30
30
78
78
00
00
00
ENDCHAR
STARTCHAR U+00F0 latin small letter eth
ENCODING 240
SWIDTH 560 0
DWIDTH 7 0
BBX 7 16 0 -3
BITMAP
00
00
D8
78
70
D8
D8
78
FC
CC
CC
FC
78
00
00
00
ENDCHAR
STARTCHAR U+00F1 latin small letter n with tilde
ENCODING 241
SWIDTH 560 0
DWIDTH 7 0
BBX 7 16 0 -3
BITMAP
00
00
74
B8
00
B8
FC
EC
CC
CC
CC
CC
CC
00
00
00
ENDCHAR
STARTCHAR U+00F2 latin small letter o with grave
ENCODING 242
SWIDTH 560 0
DWIDTH 7 0
BBX 7 16 0 -3
BITMAP
00
00
60
30
10
00
78
FC
CC
CC
CC
FC
78
00
00
00
ENDCHAR
STARTCHAR U+00F3 latin small letter o with acute
ENCODING 243
SWIDTH 560 0
DWIDTH 7 0
BBX 7 16 0 -3
BITMAP
00
00
18
30
20
00
78
FC
CC
CC
CC
FC
78
00
00
00
ENDCHAR
STARTCHAR U+00F4 latin small letter o with circumflex
ENCODING 244
SWIDTH 560 0
DWIDTH 7 0
BBX 7 16 0 -3
BITMAP
00
00
30
78
CC
00
78
FC
CC
CC
CC
FC
78
00
00
00
ENDCHAR
STARTCHAR U+00F5 latin small letter o with tilde
ENCODING 245
SWIDTH 560 0
DWIDTH 7 0
BBX 7 16 0 -3
BITMAP
00
00
00
74
B8
00
78
FC
CC
CC
CC
FC
78
00
00
00
ENDCHAR
STARTCHAR U+00F6 latin small letter o with diaeresis
ENCODING 246
SWIDTH 560 0
DWIDTH 7 0
BBX 7 16 0 -3
BITMAP
00
00
00
CC
CC
00
78
FC
CC
CC
CC
FC
78
00
00
00
ENDCHAR
STARTCHAR U+00F7 division sign
ENCODING 247
SWIDTH 560 0
DWIDTH 7 0
BBX 7 16 0 -3
BITMAP
00
00
00
00
30
30
00
FC
FC
00
30
30
00
00
00
00
ENDCHAR
STARTCHAR U+00F8 latin small letter o with stroke
ENCODING 248
SWIDTH 560 0
DWIDTH 7 0
BBX 7 16 0 -3
BITMAP
00
00
00
00
00
04
78
FC
DC
B4
EC
FC
78
80
00
00
ENDCHAR
STARTCHAR U+00F9 latin small letter u with grave
ENCODING 249
SWIDTH 560 0
DWIDTH 7 0
BBX 7 16 0 -3
BITMAP
00
60
30
10
00
CC
CC
CC
CC
CC
CC
FC
74
00
00
00
ENDCHAR
STARTCHAR U+00FA latin small letter u with acute
ENCODING 250
SWIDTH 560 0
DWIDTH 7 0
BBX 7 16 0 -3
BITMAP
00
18
30
20
00
CC
CC
CC
CC
CC
CC
FC
74
00
00
00
ENDCHAR
STARTCHAR U+00FB latin small letter u with circumflex
ENCODING 251
SWIDTH 560 0
DWIDTH 7 0
BBX 7 16 0 -3
BITMAP
00
30
78
CC
00
CC
CC
CC
CC
CC
CC
FC
74
00
00
00
ENDCHAR
STARTCHAR U+00FC latin small letter u with diaeresis
ENCODING 252
SWIDTH 560 0
DWIDTH 7 0
BBX 7 16 0 -3
BITMAP
00
00
CC
CC
00
CC
CC
CC
CC
CC
DC
FC
74
00
00
00
ENDCHAR
STARTCHAR U+00FD latin small letter y with acute
ENCODING 253
SWIDTH 560 0
DWIDTH 7 0
BBX 7 16 0 -3
BITMAP
00
18
30
20
00
CC
CC
CC
CC
CC
FC
7C
0C
8C
FC
78
ENDCHAR
STARTCHAR U+00FE latin small letter thorn
ENCODING 254
SWIDTH 560 0
DWIDTH 7 0
BBX 7 16 0 -3
BITMAP
00
00
00
00
C0
C0
C0
F8
FC
CC
CC
FC
F8
C0
C0
E0
ENDCHAR
STARTCHAR U+00FF latin small letter y with diaeresis
ENCODING 255
SWIDTH 560 0
DWIDTH 7 0
BBX 7 16 0 -3
BITMAP
00
00
CC
CC
00
CC
CC
CC
CC
CC
FC
7C
0C
8C
FC
78
ENDCHAR
STARTCHAR U+0100 latin capital letter a with macron
ENCODING 256
SWIDTH 560 0
DWIDTH 7 0
BBX 7 16 0 -3
BITMAP
78
78
00
78
FC
CC
CC
CC
FC
FC
CC
CC
CC
00
00
00
ENDCHAR
STARTCHAR U+0101 latin small letter a with macron
ENCODING 257
SWIDTH 560 0
DWIDTH 7 0
BBX 7 16 0 -3
BITMAP
00
00
78
78
00
78
7C
0C
7C
FC
CC
FC
74
00
00
00
ENDCHAR
STARTCHAR U+0102 latin capital letter a with breve
ENCODING 258
SWIDTH 560 0
DWIDTH 7 0
BBX 7 16 0 -3
BITMAP
84
FC
78
00
78
FC
CC
CC
FC
FC
CC
CC
CC
00
00
00
ENDCHAR
STARTCHAR U+0103 latin small letter a with breve
ENCODING 259
SWIDTH 560 0
DWIDTH 7 0
BBX 7 16 0 -3
BITMAP
00
84
FC
78
00
78
7C
0C
7C
FC
CC
FC
74
00
00
00
ENDCHAR
STARTCHAR U+0104 latin capital letter a with ogonek
ENCODING 260
SWIDTH 560 0
DWIDTH 7 0
BBX 7 16 0 -3
BITMAP
00
00
00
78
FC
CC
CC
CC
FC
FC
CC
CC
CC
0C
0E
00
ENDCHAR
STARTCHAR U+0105 latin small letter a with ogonek
ENCODING 261
SWIDTH 560 0
DWIDTH 7 0
BBX 7 16 0 -3
BITMAP
00
00
00
00
00
78
7C
0C
7C
FC
CC
FC
74
0C
0E
00
ENDCHAR
STARTCHAR U+0106 latin capital letter c with acute
ENCODING 262
SWIDTH 560 0
DWIDTH 7 0
BBX 7 16 0 -3
BITMAP
18
30
20
00
78
FC
CC
C0
C0
C0
CC
FC
78
00
00
00
ENDCHAR
STARTCHAR U+0107 latin small letter c with acute
ENCODING 263
SWIDTH 560 0
DWIDTH 7 0
BBX 7 16 0 -3
BITMAP
00
00
18
30
20
00
78
FC
CC
C0
CC
FC
78
00
00
00
ENDCHAR
STARTCHAR U+0108 latin capital letter c with circumflex
ENCODING 264
SWIDTH 560 0
DWIDTH 7 0
BBX 7 16 0 -3
BITMAP
30
78
CC
00
78
FC
CC
C0
C0
C0
CC
FC
78
00
00
00
ENDCHAR
STARTCHAR U+0109 latin small letter c with circumflex
ENCODING 265
SWIDTH 560 0
DWIDTH 7 0
BBX 7 16 0 -3
BITMAP
00
00
30
78
CC
00
78
FC
CC
C0
CC
FC
78
00
00
00
ENDCHAR
STARTCHAR U+010A latin capital letter c with dot above
ENCODING 266
SWIDTH 560 0
DWIDTH 7 0
BBX 7 16 0 -3
BITMAP
30
30
00
78
FC
CC
C0
C0
C0
C0
CC
FC
78
00
00
00
ENDCHAR
STARTCHAR U+010B latin small letter c with dot above
ENCODING 267
SWIDTH 560 0
DWIDTH 7 0
BBX 7 16 0 -3
BITMAP
00
00
30
30
00
78
FC
CC
C0
C0
CC
FC
78
00
00
00
ENDCHAR
STARTCHAR U+010C latin capital letter c with caron
ENCODING 268
SWIDTH 560 0
DWIDTH 7 0
BBX 7 16 0 -3
BITMAP
CC
78
30
00
78
FC
CC
C0
C0
C0
CC
FC
78
00
00
00
ENDCHAR
STARTCHAR U+010D latin small letter c with caron
ENCODING 269
SWIDTH 560 0
DWIDTH 7 0
BBX 7 16 0 -3
BITMAP
00
00
CC
78
30
00
78
FC
CC
C0
CC
FC
78
00
00
00
ENDCHAR
STARTCHAR U+010E latin capital letter d with caron
ENCODING 270
SWIDTH 560 0
DWIDTH 7 0
BBX 7 16 0 -3
BITMAP
CC
78
30
00
F0
F8
CC
CC
CC
CC
CC
F8
F0
00
00
00
ENDCHAR
STARTCHAR U+010F latin small letter d with caron
ENCODING 271
SWIDTH 560 0
DWIDTH 7 0
BBX 7 16 0 -3
BITMAP
CC
78
30
04
0C
6C
FC
DC
CC
CC
DC
FC
74
00
00
00
ENDCHAR
STARTCHAR U+0110 latin capital letter d with stroke
ENCODING 272
SWIDTH 560 0
DWIDTH 7 0
BBX 7 16 0 -3
BITMAP
00
00
00
F0
F8
CC
FC
FC
CC
CC
CC
F8
F0
00
00
00
ENDCHAR
STARTCHAR U+0111 latin small letter d with stroke
ENCODING 273
SWIDTH 560 0
DWIDTH 7 0
BBX 7 16 0 -3
BITMAP
00
00
00
0C
3C
0C
6C
FC
DC
CC
DC
FC
74
00
00
00
ENDCHAR
STARTCHAR U+0112 latin capital letter e with macron
ENCODING 274
SWIDTH 560 0
DWIDTH 7 0
BBX 7 16 0 -3
BITMAP
78
78
00
FC
FC
C0
C0
F8
F8
C0
C0
FC
FC
00
00
00
ENDCHAR
STARTCHAR U+0113 latin small letter e with macron
ENCODING 275
SWIDTH 560 0
DWIDTH 7 0
BBX 7 16 0 -3
BITMAP
00
00
78
78
00
78
FC
CC
CC
FC
C0
E0
78
00
00
00
ENDCHAR
STARTCHAR U+0114 latin capital letter e with breve
ENCODING 276
SWIDTH 560 0
DWIDTH 7 0
BBX 7 16 0 -3
BITMAP
84
FC
78
00
FC
FC
C0
F8
F8
C0
C0
FC
FC
00
00
00
ENDCHAR
STARTCHAR U+0115 latin small letter e with breve
ENCODING 277
SWIDTH 560 0
DWIDTH 7 0
BBX 7 16 0 -3
BITMAP
00
84
FC
78
00
78
FC
CC
CC
FC
C0
E0
78
00
00
00
ENDCHAR
STARTCHAR U+0116 latin capital letter e with dot above
ENCODING 278
SWIDTH 560 0
DWIDTH 7 0
BBX 7 16 0 -3
BITMAP
30
30
00
FC
FC
C0
C0
F8
F8
C0
C0
FC
FC
00
00
00
ENDCHAR
STARTCHAR U+0117 latin small letter e with dot above
ENCODING 279
SWIDTH 560 0
DWIDTH 7 0
BBX 7 16 0 -3
BITMAP
00
00
30
30
00
78
FC
CC
CC
FC
C0
E0
78
00
00
00
ENDCHAR
STARTCHAR U+0118 latin capital letter e with ogonek
ENCODING 280
SWIDTH 560 0
DWIDTH 7 0
BBX 7 16 0 -3
BITMAP
00
00
00
FC
FC
C0
C0
F8
F8
C0
C0
FC
FC
18
1C
00
ENDCHAR
STARTCHAR U+0119 latin small letter e with ogonek
ENCODING 281
SWIDTH 560 0
DWIDTH 7 0
BBX 7 16 0 -3
BITMAP
00
00
00
00
00
78
FC
CC
CC
FC
C0
E0
78
30
38
00
ENDCHAR
STARTCHAR U+011A latin capital letter e with caron
ENCODING 282
SWIDTH 560 0
DWIDTH 7 0
BBX 7 16 0 -3
BITMAP
CC
78
30
00
FC
FC
C0
F8
F8
C0
C0
FC
FC
00
00
00
ENDCHAR
STARTCHAR U+011B latin small letter e with caron
ENCODING 283
SWIDTH 560 0
DWIDTH 7 0
BBX 7 16 0 -3
BITMAP
00
CC
78
30
00
78
FC
CC
CC
FC
C0
E0
78
00
00
00
ENDCHAR
STARTCHAR U+011C latin capital letter g with circumflex
ENCODING 284
SWIDTH 560 0
DWIDTH 7 0
BBX 7 16 0 -3
BITMAP
30
78
CC
00
78
FC
CC
C0
DC
CC
CC
FC
78
00
00
00
ENDCHAR
STARTCHAR U+011D latin small letter g with circumflex
ENCODING 285
SWIDTH 560 0
DWIDTH 7 0
BBX 7 16 0 -3
BITMAP
00
30
78
CC
00
6C
FC
CC
CC
CC
FC
6C
0C
CC
FC
78
ENDCHAR
STARTCHAR U+011E latin capital letter g with breve
ENCODING 286
SWIDTH 560 0
DWIDTH 7 0
BBX 7 16 0 -3
BITMAP
84
FC
78
00
78
FC
CC
C0
DC
CC
CC
FC
78
00
00
00
ENDCHAR
STARTCHAR U+011F latin small letter g with breve
ENCODING 287
SWIDTH 560 0
DWIDTH 7 0
BBX 7 16 0 -3
BITMAP
00
84
FC
78
00
6C
FC
CC
CC
CC
FC
6C
0C
CC
FC
78
ENDCHAR
STARTCHAR U+0120 latin capital letter g with dot above
ENCODING 288
SWIDTH 560 0
DWIDTH 7 0
BBX 7 16 0 -3
BITMAP
30
30
00
78
FC
CC
C0
C0
DC
CC
CC
FC
78
00
00
00
ENDCHAR
STARTCHAR U+0121 latin small letter g with dot above
ENCODING 289
SWIDTH 560 0
DWIDTH 7 0
BBX 7 16 0 -3
BITMAP
00
00
30
30
00
6C
FC
CC
CC
CC
FC
6C
0C
CC
FC
78
ENDCHAR
STARTCHAR U+0122 latin capital letter g with cedilla
ENCODING 290
SWIDTH 560 0
DWIDTH 7 0
BBX 7 16 0 -3
BITMAP
00
00
00
78
FC
CC
C0
C0
DC
CC
CC
FC
78
00
30
60
ENDCHAR
STARTCHAR U+0123 latin small letter g with cedilla
ENCODING 291
SWIDTH 560 0
DWIDTH 7 0
BBX 7 16 0 -3
BITMAP
00
18
30
30
00
6C
FC
CC
CC
CC
FC
6C
0C
CC
FC
78
ENDCHAR
STARTCHAR U+0124 latin capital letter h with circumflex
ENCODING 292
SWIDTH 560 0
DWIDTH 7 0
BBX 7 16 0 -3
BITMAP
30
78
CC
00
CC
CC
CC
FC
FC
CC
CC
CC
CC
00
00
00
ENDCHAR
STARTCHAR U+0125 latin small letter h with circumflex
ENCODING 293
SWIDTH 560 0
DWIDTH 7 0
BBX 7 16 0 -3
BITMAP
30
78
CC
00
C0
C0
D8
FC
EC
CC
CC
CC
CC
00
00
00
ENDCHAR
STARTCHAR U+0126 latin capital letter h with stroke
ENCODING 294
SWIDTH 560 0
DWIDTH 7 0
BBX 7 16 0 -3
BITMAP
00
00
00
CC
FE
CC
CC
FC
FC
CC
CC
CC
CC
00
00
00
ENDCHAR
STARTCHAR U+0127 latin small letter h with stroke
ENCODING 295
SWIDTH 560 0
DWIDTH 7 0
BBX 7 16 0 -3
BITMAP
00
00
C0
F0
C0
D8
FC
EC
CC
CC
CC
CC
CC
00
00
00
ENDCHAR
STARTCHAR U+0128 latin capital letter i with tilde
ENCODING 296
SWIDTH 560 0
DWIDTH 7 0
BBX 7 16 0 -3
BITMAP
74
B8
00
FC
FC
30
30
30
30
30
30
FC
FC
00
00
00
ENDCHAR
STARTCHAR U+0129 latin small letter i with tilde
ENCODING 297
SWIDTH 560 0
DWIDTH 7 0
BBX 7 16 0 -3
BITMAP
00
00
74
B8
00
70
70
30
30
30
30
78
78
00
00
00
ENDCHAR
STARTCHAR U+012A latin capital letter i with macron
ENCODING 298
SWIDTH 560 0
DWIDTH 7 0
BBX 7 16 0 -3
BITMAP
78
78
00
FC
FC
30
30
30
30
30
30
FC
FC
00
00
00
ENDCHAR
STARTCHAR U+012B latin small letter i with macron
ENCODING 299
SWIDTH 560 0
DWIDTH 7 0
BBX 7 16 0 -3
BITMAP
00
00
78
78
00
70
70
30
30
30
30
78
78
00
00
00
ENDCHAR
STARTCHAR U+012C latin capital letter i with breve
ENCODING 300
SWIDTH 560 0
DWIDTH 7 0
BBX 7 16 0 -3
BITMAP
84
FC
78
00
FC
FC
30
30
30
30
30
FC
FC
00
00
00
ENDCHAR
STARTCHAR U+012D latin small letter i with breve
ENCODING 301
SWIDTH 560 0
DWIDTH 7 0
BBX 7 16 0 -3
BITMAP
00
84
FC
78
00
70
70
30
30
30
30
78
78
00
00
00
ENDCHAR
STARTCHAR U+012E latin capital letter i with ogonek
ENCODING 302
SWIDTH 560 0
DWIDTH 7 0
BBX 7 16 0 -3
BITMAP
00
00
00
FC
FC
30
30
30
30
30
30
FC
FC
18
1C
00
ENDCHAR
STARTCHAR U+012F latin small letter i with ogonek
ENCODING 303
SWIDTH 560 0
DWIDTH 7 0
BBX 7 16 0 -3
BITMAP
00
00
30
30
00
70
70
30
30
30
30
78
78
30
38
00
ENDCHAR
STARTCHAR U+0130 latin capital letter i with dot above
ENCODING 304
SWIDTH 560 0
DWIDTH 7 0
BBX 7 16 0 -3
BITMAP
30
30
00
FC
FC
30
30
30
30
30
30
FC
FC
00
00
00
ENDCHAR
STARTCHAR U+0131 latin small letter dotless i
ENCODING 305
SWIDTH 560 0
DWIDTH 7 0
BBX 7 16 0 -3
BITMAP
00
00
00
00
00
70
70
30
30
30
30
78
78
00
00
00
ENDCHAR
STARTCHAR U+0132 latin capital ligature ij
ENCODING 306
SWIDTH 560 0
DWIDTH 7 0
BBX 7 16 0 -3
BITMAP
00
00
00
CE
CE
C6
C6
C6
C6
C6
D6
DE
CC
00
00
00
ENDCHAR
STARTCHAR U+0133 latin small ligature ij
ENCODING 307
SWIDTH 560 0
DWIDTH 7 0
BBX 7 16 0 -3
BITMAP
00
00
CC
CC
00
DC
DC
CC
CC
CC
EC
0C
4C
7C
38
00
ENDCHAR
STARTCHAR U+0134 latin capital letter j with circumflex
ENCODING 308
SWIDTH 560 0
DWIDTH 7 0
BBX 7 16 0 -3
BITMAP
30
78
CC
00
3C
3C
0C
0C
0C
0C
CC
FC
78
00
00
00
ENDCHAR
STARTCHAR U+0135 latin small letter j with circumflex
ENCODING 309
SWIDTH 560 0
DWIDTH 7 0
BBX 7 16 0 -3
BITMAP
00
30
78
CC
00
38
38
18
18
18
18
18
98
F8
70
00
ENDCHAR
STARTCHAR U+0136 latin capital letter k with cedilla
ENCODING 310
SWIDTH 560 0
DWIDTH 7 0
BBX 7 16 0 -3
BITMAP
00
00
00
CC
CC
CC
D8
F0
F0
D8
CC
CC
CC
00
30
60
ENDCHAR
STARTCHAR U+0137 latin small letter k with cedilla
ENCODING 311
SWIDTH 560 0
DWIDTH 7 0
BBX 7 16 0 -3
BITMAP
00
00
00
C0
C0
CC
CC
D8
F0
F0
D8
CC
CC
00
30
60
ENDCHAR
STARTCHAR U+0138 latin small letter kra
ENCODING 312
SWIDTH 560 0
DWIDTH 7 0
BBX 7 16 0 -3
BITMAP
00
00
00
00
00
CC
CC
D8
F0
F0
D8
CC
CC
00
00
00
ENDCHAR
STARTCHAR U+0139 latin capital letter l with acute
ENCODING 313
SWIDTH 560 0
DWIDTH 7 0
BBX 7 16 0 -3
BITMAP
18
30
20
80
C0
C0
C0
C0
C0
C0
C0
FC
FC
00
00
00
ENDCHAR
STARTCHAR U+013A latin small letter l with acute
ENCODING 314
SWIDTH 560 0
DWIDTH 7 0
BBX 7 16 0 -3
BITMAP
18
30
20
00
70
70
30
30
30
30
30
78
78
00
00
00
ENDCHAR
STARTCHAR U+013B latin capital letter l with cedilla
ENCODING 315
SWIDTH 560 0
DWIDTH 7 0
BBX 7 16 0 -3
BITMAP
00
00
00
C0
C0
C0
C0
C0
C0
C0
C0
FC
FC
00
30
60
ENDCHAR
STARTCHAR U+013C latin small letter l with cedilla
ENCODING 316
SWIDTH 560 0
DWIDTH 7 0
BBX 7 16 0 -3
BITMAP
00
00
00
70
70
30
30
30
30
30
30
78
78
00
30
60
ENDCHAR
STARTCHAR U+013D latin capital letter l with caron
ENCODING 317
SWIDTH 560 0
DWIDTH 7 0
BBX 7 16 0 -3
BITMAP
CC
78
30
80
C0
C0
C0
C0
C0
C0
C0
FC
FC
00
00
00
ENDCHAR
STARTCHAR U+013E latin small letter l with caron
ENCODING 318
SWIDTH 560 0
DWIDTH 7 0
BBX 7 16 0 -3
BITMAP
CC
78
30
00
70
70
30
30
30
30
30
78
78
00
00
00
ENDCHAR
STARTCHAR U+013F latin capital letter l with middle dot
ENCODING 319
SWIDTH 560 0
DWIDTH 7 0
BBX 7 16 0 -3
BITMAP
00
00
00
C0
C0
C0
D8
D8
C0
C0
C0
FC
FC
00
00
00
ENDCHAR
STARTCHAR U+0140 latin small letter l with middle dot
ENCODING 320
SWIDTH 560 0
DWIDTH 7 0
BBX 7 16 0 -3
BITMAP
00
00
00
70
70
30
30
36
36
30
30
78
78
00
00
00
ENDCHAR
STARTCHAR U+0141 latin capital letter l with stroke
ENCODING 321
SWIDTH 560 0
DWIDTH 7 0
BBX 7 16 0 -3
BITMAP
00
00
00
60
68
78
70
60
E0
E0
60
7C
7C
00
00
00
ENDCHAR
STARTCHAR U+0142 latin small letter l with stroke
ENCODING 322
SWIDTH 560 0
DWIDTH 7 0
BBX 7 16 0 -3
BITMAP
00
00
00
70
74
3C
38
30
70
70
30
78
78
00
00
00
ENDCHAR
STARTCHAR U+0143 latin capital letter n with acute
ENCODING 323
SWIDTH 560 0
DWIDTH 7 0
BBX 7 16 0 -3
BITMAP
18
30
20
8C
CC
CC
EC
EC
DC
DC
CC
CC
C4
00
00
00
ENDCHAR
STARTCHAR U+0144 latin small letter n with acute
ENCODING 324
SWIDTH 560 0
DWIDTH 7 0
BBX 7 16 0 -3
BITMAP
00
18
30
20
00
B8
FC
EC
CC
CC
CC
CC
CC
00
00
00
ENDCHAR
STARTCHAR U+0145 latin capital letter n with cedilla
ENCODING 325
SWIDTH 560 0
DWIDTH 7 0
BBX 7 16 0 -3
BITMAP
00
00
00
8C
CC
CC
EC
EC
DC
DC
CC
CC
C4
00
30
60
ENDCHAR
STARTCHAR U+0146 latin small letter n with cedilla
ENCODING 326
SWIDTH 560 0
DWIDTH 7 0
BBX 7 16 0 -3
BITMAP
00
00
00
00
00
B8
FC
EC
CC
CC
CC
CC
CC
00
30
60
ENDCHAR
STARTCHAR U+0147 latin capital letter n with caron
ENCODING 327
SWIDTH 560 0
DWIDTH 7 0
BBX 7 16 0 -3
BITMAP
CC
78
30
00
8C
CC
CC
EC
FC
DC
CC
CC
C4
00
00
00
ENDCHAR
STARTCHAR U+0148 latin small letter n with caron
ENCODING 328
SWIDTH 560 0
DWIDTH 7 0
BBX 7 16 0 -3
BITMAP
00
CC
78
30
00
B8
FC
EC
CC
CC
CC
CC
CC
00
00
00
ENDCHAR
STARTCHAR U+0149 latin small letter n preceded by apostrophe
ENCODING 329
SWIDTH 560 0
DWIDTH 7 0
BBX 7 16 0 -3
BITMAP
00
60
60
C0
00
B8
FC
EC
CC
CC
CC
CC
CC
00
00
00
ENDCHAR
STARTCHAR U+014A latin capital letter eng
ENCODING 330
SWIDTH 560 0
DWIDTH 7 0
BBX 7 16 0 -3
BITMAP
00
00
00
8C
CC
CC
EC
EC
DC
DC
CC
CC
CC
0C
0C
18
ENDCHAR
STARTCHAR U+014B latin small letter eng
ENCODING 331
SWIDTH 560 0
DWIDTH 7 0
BBX 7 16 0 -3
BITMAP
00
00
00
00
00
B8
FC
EC
CC
CC
CC
CC
CC
0C
0C
18
ENDCHAR
STARTCHAR U+014C latin capital letter o with macron
ENCODING 332
SWIDTH 560 0
DWIDTH 7 0
BBX 7 16 0 -3
BITMAP
78
78
00
78
FC
CC
CC
CC
CC
CC
CC
FC
78
00
00
00
ENDCHAR
STARTCHAR U+014D latin small letter o with macron
ENCODING 333
SWIDTH 560 0
DWIDTH 7 0
BBX 7 16 0 -3
BITMAP
00
00
00
78
78
00
78
FC
CC
CC
CC
FC
78
00
00
00
ENDCHAR
STARTCHAR U+014E latin capital letter o with breve
ENCODING 334
SWIDTH 560 0
DWIDTH 7 0
BBX 7 16 0 -3
BITMAP
84
FC
78
00
78
FC
CC
CC
CC
CC
CC
FC
78
00
00
00
ENDCHAR
STARTCHAR U+014F latin small letter o with breve
ENCODING 335
SWIDTH 560 0
DWIDTH 7 0
BBX 7 16 0 -3
BITMAP
00
00
84
FC
78
00
78
FC
CC
CC
CC
FC
78
00
00
00
ENDCHAR
STARTCHAR U+0150 latin capital letter o with double acute
ENCODING 336
SWIDTH 560 0
DWIDTH 7 0
BBX 7 16 0 -3
BITMAP
6C
6C
48
00
78
FC
CC
CC
CC
CC
CC
FC
78
00
00
00
ENDCHAR
STARTCHAR U+0151 latin small letter o with double acute
ENCODING 337
SWIDTH 560 0
DWIDTH 7 0
BBX 7 16 0 -3
BITMAP
00
00
6C
6C
48
00
78
FC
CC
CC
CC
FC
78
00
00
00
ENDCHAR
STARTCHAR U+0152 latin capital ligature oe
ENCODING 338
SWIDTH 560 0
DWIDTH 7 0
BBX 7 16 0 -3
BITMAP
00
00
00
6C
FC
B0
90
9C
9C
90
B0
FC
6C
00
00
00
ENDCHAR
STARTCHAR U+0153 latin small ligature oe
ENCODING 339
SWIDTH 560 0
DWIDTH 7 0
BBX 7 16 0 -3
BITMAP
00
00
00
00
00
6C
FE
92
92
9E
98
FC
66
00
00
00
ENDCHAR
STARTCHAR U+0154 latin capital letter r with acute
ENCODING 340
SWIDTH 560 0
DWIDTH 7 0
BBX 7 16 0 -3
BITMAP
18
30
20
00
F8
FC
CC
CC
FC
F8
D8
CC
CC
00
00
00
ENDCHAR
STARTCHAR U+0155 latin small letter r with acute
ENCODING 341
SWIDTH 560 0
DWIDTH 7 0
BBX 7 16 0 -3
BITMAP
00
18
30
20
00
B8
FC
E4
C0
C0
C0
C0
C0
00
00
00
ENDCHAR
STARTCHAR U+0156 latin capital letter r with cedilla
ENCODING 342
SWIDTH 560 0
DWIDTH 7 0
BBX 7 16 0 -3
BITMAP
00
00
00
F8
FC
CC
CC
FC
F8
D8
CC
CC
CC
00
30
60
ENDCHAR
STARTCHAR U+0157 latin small letter r with cedilla
ENCODING 343
SWIDTH 560 0
DWIDTH 7 0
BBX 7 16 0 -3
BITMAP
00
00
00
00
00
B8
FC
E4
C0
C0
C0
C0
C0
00
30
60
ENDCHAR
STARTCHAR U+0158 latin capital letter r with caron
ENCODING 344
SWIDTH 560 0
DWIDTH 7 0
BBX 7 16 0 -3
BITMAP
CC
78
30
00
F8
FC
CC
CC
FC
F8
D8
CC
CC
00
00
00
ENDCHAR
STARTCHAR U+0159 latin small letter r with caron
ENCODING 345
SWIDTH 560 0
DWIDTH 7 0
BBX 7 16 0 -3
BITMAP
00
CC
78
30
00
B8
FC
E4
C0
C0
C0
C0
C0
00
00
00
ENDCHAR
STARTCHAR U+015A latin capital letter s with acute
ENCODING 346
SWIDTH 560 0
DWIDTH 7 0
BBX 7 16 0 -3
BITMAP
18
30
20
00
78
FC
CC
E0
78
1C
CC
FC
78
00
00
00
ENDCHAR
STARTCHAR U+015B latin small letter s with acute
ENCODING 347
SWIDTH 560 0
DWIDTH 7 0
BBX 7 16 0 -3
BITMAP
00
18
30
20
00
78
EC
C0
F8
7C
0C
DC
78
00
00
00
ENDCHAR
STARTCHAR U+015C latin capital letter s with circumflex
ENCODING 348
SWIDTH 560 0
DWIDTH 7 0
BBX 7 16 0 -3
BITMAP
30
78
CC
00
78
FC
CC
E0
78
1C
CC
FC
78
00
00
00
ENDCHAR
STARTCHAR U+015D latin small letter s with circumflex
ENCODING 349
SWIDTH 560 0
DWIDTH 7 0
BBX 7 16 0 -3
BITMAP
00
30
78
CC
00
78
EC
C0
F8
7C
0C
DC
78
00
00
00
ENDCHAR
STARTCHAR U+015E latin capital letter s with cedilla
ENCODING 350
SWIDTH 560 0
DWIDTH 7 0
BBX 7 16 0 -3
BITMAP
00
00
00
78
FC
CC
C0
70
38
0C
CC
FC
78
10
58
30
ENDCHAR
STARTCHAR U+015F latin small letter s with cedilla
ENCODING 351
SWIDTH 560 0
DWIDTH 7 0
BBX 7 16 0 -3
BITMAP
00
00
00
00
00
78
EC
C0
F8
7C
0C
DC
78
10
58
30
ENDCHAR
STARTCHAR U+0160 latin capital letter s with caron
ENCODING 352
SWIDTH 560 0
DWIDTH 7 0
BBX 7 16 0 -3
BITMAP
CC
78
30
00
78
FC
CC
E0
78
1C
CC
FC
78
00
00
00
ENDCHAR
STARTCHAR U+0161 latin small letter s with caron
ENCODING 353
SWIDTH 560 0
DWIDTH 7 0
BBX 7 16 0 -3
BITMAP
00
CC
78
30
00
78
EC
C0
F8
7C
0C
DC
78
00
00
00
ENDCHAR
STARTCHAR U+0162 latin capital letter t with cedilla
ENCODING 354
SWIDTH 560 0
DWIDTH 7 0
BBX 7 16 0 -3
BITMAP
00
00
00
FC
FC
30
30
30
30
30
30
30
30
10
58
30
ENDCHAR
STARTCHAR U+0163 latin small letter t with cedilla
ENCODING 355
SWIDTH 560 0
DWIDTH 7 0
BBX 7 16 0 -3
BITMAP
00
00
00
60
60
F8
F8
60
60
60
64
7C
38
10
58
30
ENDCHAR
STARTCHAR U+0164 latin capital letter t with caron
ENCODING 356
SWIDTH 560 0
DWIDTH 7 0
BBX 7 16 0 -3
BITMAP
CC
78
30
00
FC
FC
30
30
30
30
30
30
30
00
00
00
ENDCHAR
STARTCHAR U+0165 latin small letter t with caron
ENCODING 357
SWIDTH 560 0
DWIDTH 7 0
BBX 7 16 0 -3
BITMAP
CC
78
30
00
60
60
F8
F8
60
60
64
7C
38
00
00
00
ENDCHAR
STARTCHAR U+0166 latin capital letter t with stroke
ENCODING 358
SWIDTH 560 0
DWIDTH 7 0
BBX 7 16 0 -3
BITMAP
00
00
00
FC
FC
30
30
FC
30
30
30
30
30
00
00
00
ENDCHAR
STARTCHAR U+0167 latin small letter t with stroke
ENCODING 359
SWIDTH 560 0
DWIDTH 7 0
BBX 7 16 0 -3
BITMAP
00
00
00
60
60
F8
F8
60
F8
60
64
7C
38
00
00
00
ENDCHAR
STARTCHAR U+0168 latin capital letter u with tilde
ENCODING 360
SWIDTH 560 0
DWIDTH 7 0
BBX 7 16 0 -3
BITMAP
74
B8
00
CC
CC
CC
CC
CC
CC
CC
CC
FC
78
00
00
00
ENDCHAR
STARTCHAR U+0169 latin small letter u with tilde
ENCODING 361
SWIDTH 560 0
DWIDTH 7 0
BBX 7 16 0 -3
BITMAP
00
00
74
B8
00
CC
CC
CC
CC
CC
DC
FC
74
00
00
00
ENDCHAR
STARTCHAR U+016A latin capital letter u with macron
ENCODING 362
SWIDTH 560 0
DWIDTH 7 0
BBX 7 16 0 -3
BITMAP
78
78
00
CC
CC
CC
CC
CC
CC
CC
CC
FC
78
00
00
00
ENDCHAR
STARTCHAR U+016B latin small letter u with macron
ENCODING 363
SWIDTH 560 0
DWIDTH 7 0
BBX 7 16 0 -3
BITMAP
00
00
78
78
00
CC
CC
CC
CC
CC
DC
FC
74
00
00
00
ENDCHAR
STARTCHAR U+016C latin capital letter u with breve
ENCODING 364
SWIDTH 560 0
DWIDTH 7 0
BBX 7 16 0 -3
BITMAP
84
FC
78
00
CC
CC
CC
CC
CC
CC
CC
FC
78
00
00
00
ENDCHAR
STARTCHAR U+016D latin small letter u with breve
ENCODING 365
SWIDTH 560 0
DWIDTH 7 0
BBX 7 16 0 -3
BITMAP
00
84
FC
78
00
CC
CC
CC
CC
CC
DC
FC
74
00
00
00
ENDCHAR
STARTCHAR U+016E latin capital letter u with ring above
ENCODING 366
SWIDTH 560 0
DWIDTH 7 0
BBX 7 16 0 -3
BITMAP
78
CC
78
00
CC
CC
CC
CC
CC
CC
CC
FC
78
00
00
00
ENDCHAR
STARTCHAR U+016F latin small letter u with ring above
ENCODING 367
SWIDTH 560 0
DWIDTH 7 0
BBX 7 16 0 -3
BITMAP
00
78
CC
78
00
CC
CC
CC
CC
CC
DC
FC
74
00
00
00
ENDCHAR
STARTCHAR U+0170 latin capital letter u with double acute
ENCODING 368
SWIDTH 560 0
DWIDTH 7 0
BBX 7 16 0 -3
BITMAP
6C
6C
48
00
CC
CC
CC
CC
CC
CC
CC
FC
78
00
00
00
ENDCHAR
STARTCHAR U+0171 latin small letter u with double acute
ENCODING 369
SWIDTH 560 0
DWIDTH 7 0
BBX 7 16 0 -3
BITMAP
00
6C
6C
48
00
CC
CC
CC
CC
CC
DC
FC
74
00
00
00
ENDCHAR
STARTCHAR U+0172 latin capital letter u with ogonek
ENCODING 370
SWIDTH 560 0
DWIDTH 7 0
BBX 7 16 0 -3
BITMAP
00
00
00
CC
CC
CC
CC
CC
CC
CC
CC
FC
78
18
1C
00
ENDCHAR
STARTCHAR U+0173 latin small letter u with ogonek
ENCODING 371
SWIDTH 560 0
DWIDTH 7 0
BBX 7 16 0 -3
BITMAP
00
00
00
00
00
CC
CC
CC
CC
CC
DC
FC
74
30
38
00
ENDCHAR
STARTCHAR U+0174 latin capital letter w with circumflex
ENCODING 372
SWIDTH 560 0
DWIDTH 7 0
BBX 7 16 0 -3
BITMAP
30
78
CC
00
84
CC
CC
CC
FC
FC
FC
CC
84
00
00
00
ENDCHAR
STARTCHAR U+0175 latin small letter w with circumflex
ENCODING 373
SWIDTH 560 0
DWIDTH 7 0
BBX 7 16 0 -3
BITMAP
00
30
78
CC
00
CC
CC
CC
CC
FC
FC
FC
CC
00
00
00
ENDCHAR
STARTCHAR U+0176 latin capital letter y with circumflex
ENCODING 374
SWIDTH 560 0
DWIDTH 7 0
BBX 7 16 0 -3
BITMAP
30
78
CC
00
CC
CC
CC
FC
78
30
30
30
30
00
00
00
ENDCHAR
STARTCHAR U+0177 latin small letter y with circumflex
ENCODING 375
SWIDTH 560 0
DWIDTH 7 0
BBX 7 16 0 -3
BITMAP
00
30
78
CC
00
CC
CC
CC
CC
DC
FC
6C
0C
8C
FC
78
ENDCHAR
STARTCHAR U+0178 latin capital letter y with diaeresis
ENCODING 376
SWIDTH 560 0
DWIDTH 7 0
BBX 7 16 0 -3
BITMAP
CC
CC
00
CC
CC
CC
CC
FC
78
30
30
30
30
00
00
00
ENDCHAR
STARTCHAR U+0179 latin capital letter z with acute
ENCODING 377
SWIDTH 560 0
DWIDTH 7 0
BBX 7 16 0 -3
BITMAP
18
30
20
00
FC
FC
0C
18
30
60
C0
FC
FC
00
00
00
ENDCHAR
STARTCHAR U+017A latin small letter z with acute
ENCODING 378
SWIDTH 560 0
DWIDTH 7 0
BBX 7 16 0 -3
BITMAP
00
18
30
20
00
FC
FC
0C
38
70
C0
FC
FC
00
00
00
ENDCHAR
STARTCHAR U+017B latin capital letter z with dot above
ENCODING 379
SWIDTH 560 0
DWIDTH 7 0
BBX 7 16 0 -3
BITMAP
30
30
00
FC
FC
0C
18
30
30
60
C0
FC
FC
00
00
00
ENDCHAR
STARTCHAR U+017C latin small letter z with dot above
ENCODING 380
SWIDTH 560 0
DWIDTH 7 0
BBX 7 16 0 -3
BITMAP
00
00
30
30
00
FC
FC
0C
38
70
C0
FC
FC
00
00
00
ENDCHAR
STARTCHAR U+017D latin capital letter z with caron
ENCODING 381
SWIDTH 560 0
DWIDTH 7 0
BBX 7 16 0 -3
BITMAP
CC
78
30
00
FC
FC
0C
18
30
60
C0
FC
FC
00
00
00
ENDCHAR
STARTCHAR U+017E latin small letter z with caron
ENCODING 382
SWIDTH 560 0
DWIDTH 7 0
BBX 7 16 0 -3
BITMAP
00
CC
78
30
00
FC
FC
0C
38
70
C0
FC
FC
00
00
00
ENDCHAR
STARTCHAR U+017F latin small letter long s
ENCODING 383
SWIDTH 560 0
DWIDTH 7 0
BBX 7 16 0 -3
BITMAP
00
00
00
38
7C
64
60
E0
E0
60
60
60
60
00
00
00
ENDCHAR
STARTCHAR U+0218 latin capital letter s with comma below
ENCODING 536
SWIDTH 560 0
DWIDTH 7 0
BBX 7 16 0 -3
BITMAP
00
00
00
78
FC
CC
C0
70
38
0C
CC
FC
78
00
30
60
ENDCHAR
STARTCHAR U+0219 latin small letter s with comma below
ENCODING 537
SWIDTH 560 0
DWIDTH 7 0
BBX 7 16 0 -3
BITMAP
00
00
00
00
00
78
EC
C0
F8
7C
0C
DC
78
00
30
60
ENDCHAR
STARTCHAR U+021A latin capital letter t with comma below
ENCODING 538
SWIDTH 560 0
DWIDTH 7 0
BBX 7 16 0 -3
BITMAP
00
00
00
FC
FC
30
30
30
30
30
30
30
30
00
30
60
ENDCHAR
STARTCHAR U+021B latin small letter t with comma below
ENCODING 539
SWIDTH 560 0
DWIDTH 7 0
BBX 7 16 0 -3
BITMAP
00
00
00
60
60
F8
F8
60
60
60
64
7C
38
00
30
60
ENDCHAR
STARTCHAR U+02C7 caron
ENCODING 711
SWIDTH 560 0
DWIDTH 7 0
BBX 7 16 0 -3
BITMAP
00
00
CC
78
30
00
00
00
00
00
00
00
00
00
00
00
ENDCHAR
STARTCHAR U+02D8 breve
ENCODING 728
SWIDTH 560 0
DWIDTH 7 0
BBX 7 16 0 -3
BITMAP
00
00
84
FC
78
00
00
00
00
00
00
00
00
00
00
00
ENDCHAR
STARTCHAR U+02D9 dot above
ENCODING 729
SWIDTH 560 0
DWIDTH 7 0
BBX 7 16 0 -3
BITMAP
00
00
30
30
00
00
00
00
00
00
00
00
00
00
00
00
ENDCHAR
STARTCHAR U+02DB ogonek
ENCODING 731
SWIDTH 560 0
DWIDTH 7 0
BBX 7 16 0 -3
BITMAP
00
00
00
00
00
00
00
00
00
00
00
30
60
68
30
00
ENDCHAR
STARTCHAR U+02DD double acute accent
ENCODING 733
SWIDTH 560 0
DWIDTH 7 0
BBX 7 16 0 -3
BITMAP
00
00
6C
6C
48
00
00
00
00
00
00
00
00
00
00
00
ENDCHAR
STARTCHAR U+1E02 latin capital letter b with dot above
ENCODING 7682
SWIDTH 560 0
DWIDTH 7 0
BBX 7 16 0 -3
BITMAP
30
30
00
F8
FC
CC
CC
F8
F8
CC
CC
FC
F8
00
00
00
ENDCHAR
STARTCHAR U+1E03 latin small letter b with dot above
ENCODING 7683
SWIDTH 560 0
DWIDTH 7 0
BBX 7 16 0 -3
BITMAP
30
30
00
C0
C0
D8
FC
EC
CC
CC
EC
FC
B8
00
00
00
ENDCHAR
STARTCHAR U+1E0A latin capital letter d with dot above
ENCODING 7690
SWIDTH 560 0
DWIDTH 7 0
BBX 7 16 0 -3
BITMAP
30
30
00
F0
F8
CC
CC
CC
CC
CC
CC
F8
F0
00
00
00
ENDCHAR
STARTCHAR U+1E0B latin small letter d with dot above
ENCODING 7691
SWIDTH 560 0
DWIDTH 7 0
BBX 7 16 0 -3
BITMAP
30
30
00
0C
0C
6C
FC
DC
CC
CC
DC
FC
74
00
00
00
ENDCHAR
STARTCHAR U+1E1E latin capital letter f with dot above
ENCODING 7710
SWIDTH 560 0
DWIDTH 7 0
BBX 7 16 0 -3
BITMAP
30
30
00
FC
FC
C0
C0
F8
F8
C0
C0
C0
C0
00
00
00
ENDCHAR
STARTCHAR U+1E1F latin small letter f with dot above
ENCODING 7711
SWIDTH 560 0
DWIDTH 7 0
BBX 7 16 0 -3
BITMAP
30
30
00
38
7C
64
60
F8
F8
60
60
60
60
00
00
00
ENDCHAR
STARTCHAR U+1E40 latin capital letter m with dot above
ENCODING 7744
SWIDTH 560 0
DWIDTH 7 0
BBX 7 16 0 -3
BITMAP
30
30
00
84
CC
FC
FC
FC
CC
CC
CC
CC
CC
00
00
00
ENDCHAR
STARTCHAR U+1E41 latin small letter m with dot above
ENCODING 7745
SWIDTH 560 0
DWIDTH 7 0
BBX 7 16 0 -3
BITMAP
00
00
30
30
00
CC
FC
FC
FC
CC
CC
CC
CC
00
00
00
ENDCHAR
STARTCHAR U+1E56 latin capital letter p with dot above
ENCODING 7766
SWIDTH 560 0
DWIDTH 7 0
BBX 7 16 0 -3
BITMAP
30
30
00
F8
FC
CC
CC
FC
F8
C0
C0
C0
C0
00
00
00
ENDCHAR
STARTCHAR U+1E57 latin small letter p with dot above
ENCODING 7767
SWIDTH 560 0
DWIDTH 7 0
BBX 7 16 0 -3
BITMAP
00
00
30
30
00
B8
FC
CC
CC
CC
FC
D8
C0
C0
C0
C0
ENDCHAR
STARTCHAR U+1E60 latin capital letter s with dot above
ENCODING 7776
SWIDTH 560 0
DWIDTH 7 0
BBX 7 16 0 -3
BITMAP
30
30
00
78
FC
CC
C0
70
38
0C
CC
FC
78
00
00
00
ENDCHAR
STARTCHAR U+1E61 latin small letter s with dot above
ENCODING 7777
SWIDTH 560 0
DWIDTH 7 0
BBX 7 16 0 -3
BITMAP
00
00
30
30
00
78
EC
C0
F8
7C
0C
DC
78
00
00
00
ENDCHAR
STARTCHAR U+1E6A latin capital letter t with dot above
ENCODING 7786
SWIDTH 560 0
DWIDTH 7 0
BBX 7 16 0 -3
BITMAP
30
30
00
FC
FC
30
30
30
30
30
30
30
30
00
00
00
ENDCHAR
STARTCHAR U+1E6B latin small letter t with dot above
ENCODING 7787
SWIDTH 560 0
DWIDTH 7 0
BBX 7 16 0 -3
BITMAP
30
30
00
60
60
F8
F8
60
60
60
64
7C
38
00
00
00
ENDCHAR
STARTCHAR U+1E80 latin capital letter w with grave
ENCODING 7808
SWIDTH 560 0
DWIDTH 7 0
BBX 7 16 0 -3
BITMAP
60
30
10
84
CC
CC
CC
CC
FC
FC
FC
CC
84
00
00
00
ENDCHAR
STARTCHAR U+1E81 latin small letter w with grave
ENCODING 7809
SWIDTH 560 0
DWIDTH 7 0
BBX 7 16 0 -3
BITMAP
00
60
30
10
00
CC
CC
CC
CC
FC
FC
FC
CC
00
00
00
ENDCHAR
STARTCHAR U+1E82 latin capital letter w with acute
ENCODING 7810
SWIDTH 560 0
DWIDTH 7 0
BBX 7 16 0 -3
BITMAP
18
30
20
84
CC
CC
CC
CC
FC
FC
FC
CC
84
00
00
00
ENDCHAR
STARTCHAR U+1E83 latin small letter w with acute
ENCODING 7811
SWIDTH 560 0
DWIDTH 7 0
BBX 7 16 0 -3
BITMAP
00
18
30
20
00
CC
CC
CC
CC
FC
FC
FC
CC
00
00
00
ENDCHAR
STARTCHAR U+1E84 latin capital letter w with diaeresis
ENCODING 7812
SWIDTH 560 0
DWIDTH 7 0
BBX 7 16 0 -3
BITMAP
CC
CC
00
84
CC
CC
CC
CC
FC
FC
FC
CC
84
00
00
00
ENDCHAR
STARTCHAR U+1E85 latin small letter w with diaeresis
ENCODING 7813
SWIDTH 560 0
DWIDTH 7 0
BBX 7 16 0 -3
BITMAP
00
00
CC
CC
00
CC
CC
CC
CC
FC
FC
FC
CC
00
00
00
ENDCHAR
STARTCHAR U+1EF2 latin capital letter y with grave
ENCODING 7922
SWIDTH 560 0
DWIDTH 7 0
BBX 7 16 0 -3
BITMAP
60
30
10
C4
CC
CC
CC
FC
78
30
30
30
30
00
00
00
ENDCHAR
STARTCHAR U+1EF3 latin small letter y with grave
ENCODING 7923
SWIDTH 560 0
DWIDTH 7 0
BBX 7 16 0 -3
BITMAP
00
60
30
10
00
CC
CC
CC
CC
DC
FC
6C
0C
8C
FC
78
ENDCHAR
STARTCHAR U+2010 hyphen
ENCODING 8208
SWIDTH 560 0
DWIDTH 7 0
BBX 7 16 0 -3
BITMAP
00
00
00
00
00
00
00
7C
7C
00
00
00
00
00
00
00
ENDCHAR
STARTCHAR U+2013 en dash
ENCODING 8211
SWIDTH 560 0
DWIDTH 7 0
BBX 7 16 0 -3
BITMAP
00
00
00
00
00
00
00
FC
FC
00
00
00
00
00
00
00
ENDCHAR
STARTCHAR U+2014 em dash
ENCODING 8212
SWIDTH 560 0
DWIDTH 7 0
BBX 7 16 0 -3
BITMAP
00
00
00
00
00
00
00
FE
FE
00
00
00
00
00
00
00
ENDCHAR
STARTCHAR U+2015 horizontal bar
ENCODING 8213
SWIDTH 560 0
DWIDTH 7 0
BBX 7 16 0 -3
BITMAP
00
00
00
00
00
00
00
FE
FE
00
00
00
00
00
00
00
ENDCHAR
STARTCHAR U+2018 left single quotation mark
ENCODING 8216
SWIDTH 560 0
DWIDTH 7 0
BBX 7 16 0 -3
BITMAP
00
00
18
30
38
38
00
00
00
00
00
00
00
00
00
00
ENDCHAR
STARTCHAR U+2019 right single quotation mark
ENCODING 8217
SWIDTH 560 0
DWIDTH 7 0
BBX 7 16 0 -3
BITMAP
00
00
38
38
18
30
00
00
00
00
00
00
00
00
00
00
ENDCHAR
STARTCHAR U+201B single high-reversed-9 quotation mark
ENCODING 8219
SWIDTH 560 0
DWIDTH 7 0
BBX 7 16 0 -3
BITMAP
00
00
38
38
30
18
00
00
00
00
00
00
00
00
00
00
ENDCHAR
STARTCHAR U+201C left double quotation mark
ENCODING 8220
SWIDTH 560 0
DWIDTH 7 0
BBX 7 16 0 -3
BITMAP
00
00
6C
D8
FC
FC
00
00
00
00
00
00
00
00
00
00
ENDCHAR
STARTCHAR U+201D right double quotation mark
ENCODING 8221
SWIDTH 560 0
DWIDTH 7 0
BBX 7 16 0 -3
BITMAP
00
00
FC
FC
6C
D8
00
00
00
00
00
00
00
00
00
00
ENDCHAR
STARTCHAR U+201E double low-9 quotation mark
ENCODING 8222
SWIDTH 560 0
DWIDTH 7 0
BBX 7 16 0 -3
BITMAP
00
00
00
00
00
00
00
00
00
00
00
FC
FC
6C
D8
00
ENDCHAR
STARTCHAR U+201F double high-reversed-9 quotation mark
ENCODING 8223
SWIDTH 560 0
DWIDTH 7 0
BBX 7 16 0 -3
BITMAP
00
00
FC
FC
D8
6C
00
00
00
00
00
00
00
00
00
00
ENDCHAR
STARTCHAR U+2022 Bullet
ENCODING 8226
SWIDTH 560 0
DWIDTH 7 0
BBX 7 16 0 -3
BITMAP
00
00
00
00
00
30
78
FC
FC
78
30
00
00
00
00
00
ENDCHAR
STARTCHAR U+2026 Horizontal Ellipsis
ENCODING 8230
SWIDTH 560 0
DWIDTH 7 0
BBX 7 16 0 -3
BITMAP
00
00
00
00
00
00
00
00
00
00
00
A8
A8
00
00
00
ENDCHAR
STARTCHAR U+2030 per mille sign
ENCODING 8240
SWIDTH 560 0
DWIDTH 7 0
BBX 7 16 0 -3
BITMAP
00
00
00
64
9C
98
78
30
30
7C
6A
EA
BC
00
00
00
ENDCHAR
STARTCHAR U+2052 commercial minus sign
ENCODING 8274
SWIDTH 560 0
DWIDTH 7 0
BBX 7 16 0 -3
BITMAP
00
00
00
0C
CC
D8
18
30
30
60
6C
CC
C0
00
00
00
ENDCHAR
STARTCHAR U+20AC euro sign
ENCODING 8364
SWIDTH 560 0
DWIDTH 7 0
BBX 7 16 0 -3
BITMAP
00
00
00
3C
7E
66
60
FC
60
F8
60
66
7E
3C
00
00
ENDCHAR
STARTCHAR U+2122 trade mark sign
ENCODING 8482
SWIDTH 560 0
DWIDTH 7 0
BBX 7 16 0 -3
BITMAP
00
00
00
F4
5C
5C
54
54
54
00
00
00
00
00
00
00
ENDCHAR
STARTCHAR U+2192 rightwards arrow
ENCODING 8594
SWIDTH 560 0
DWIDTH 7 0
BBX 7 16 0 -3
BITMAP
00
00
00
00
00
10
18
FC
FC
18
10
00
00
00
00
00
ENDCHAR
STARTCHAR U+2260 not equal to
ENCODING 8800
SWIDTH 560 0
DWIDTH 7 0
BBX 7 16 0 -3
BITMAP
00
00
00
18
18
FC
FC
30
30
FC
FC
60
60
00
00
00
ENDCHAR
STARTCHAR U+2500 box drawings light horizontal
ENCODING 9472
SWIDTH 560 0
DWIDTH 7 0
BBX 7 16 0 -3
BITMAP
00
00
00
00
00
00
00
00
FE
00
00
00
00
00
00
00
ENDCHAR
STARTCHAR U+2501 box drawings heavy horizontal
ENCODING 9473
SWIDTH 560 0
DWIDTH 7 0
BBX 7 16 0 -3
BITMAP
00
00
00
00
00
00
00
FE
FE
FE
00
00
00
00
00
00
ENDCHAR
STARTCHAR U+2502 box drawings light vertical
ENCODING 9474
SWIDTH 560 0
DWIDTH 7 0
BBX 7 16 0 -3
BITMAP
10
10
10
10
10
10
10
10
10
10
10
10
10
10
10
10
ENDCHAR
STARTCHAR U+2503 box drawings heavy vertical
ENCODING 9475
SWIDTH 560 0
DWIDTH 7 0
BBX 7 16 0 -3
BITMAP
38
38
38
38
38
38
38
38
38
38
38
38
38
38
38
38
ENDCHAR
STARTCHAR U+250C box drawings light down and right
ENCODING 9484
SWIDTH 560 0
DWIDTH 7 0
BBX 7 16 0 -3
BITMAP
00
00
00
00
00
00
00
1E
10
10
10
10
10
10
10
10
ENDCHAR
STARTCHAR U+2510 box drawings light down and left
ENCODING 9488
SWIDTH 560 0
DWIDTH 7 0
BBX 7 16 0 -3
BITMAP
00
00
00
00
00
00
00
F0
10
10
10
10
10
10
10
10
ENDCHAR
STARTCHAR U+2514 box drawings light up and right
ENCODING 9492
SWIDTH 560 0
DWIDTH 7 0
BBX 7 16 0 -3
BITMAP
10
10
10
10
10
10
10
1E
00
00
00
00
00
00
00
00
ENDCHAR
STARTCHAR U+2518 box drawings light up and left
ENCODING 9496
SWIDTH 560 0
DWIDTH 7 0
BBX 7 16 0 -3
BITMAP
10
10
10
10
10
10
10
F0
00
00
00
00
00
00
00
00
ENDCHAR
STARTCHAR U+251C box drawings light vertical and right
ENCODING 9500
SWIDTH 560 0
DWIDTH 7 0
BBX 7 16 0 -3
BITMAP
10
10
10
10
10
10
10
1E
10
10
10
10
10
10
10
10
ENDCHAR
STARTCHAR U+2524 box drawings light vertical and left
ENCODING 9508
SWIDTH 560 0
DWIDTH 7 0
BBX 7 16 0 -3
BITMAP
10
10
10
10
10
10
10
F0
10
10
10
10
10
10
10
10
ENDCHAR
STARTCHAR U+252C box drawings light down and horizontal
ENCODING 9516
SWIDTH 560 0
DWIDTH 7 0
BBX 7 16 0 -3
BITMAP
00
00
00
00
00
00
00
FE
10
10
10
10
10
10
10
10
ENDCHAR
STARTCHAR U+2534 box drawings light up and horizontal
ENCODING 9524
SWIDTH 560 0
DWIDTH 7 0
BBX 7 16 0 -3
BITMAP
10
10
10
10
10
10
10
FE
00
00
00
00
00
00
00
00
ENDCHAR
STARTCHAR U+253C box drawings light vertical and horizontal
ENCODING 9532
SWIDTH 560 0
DWIDTH 7 0
BBX 7 16 0 -3
BITMAP
10
10
10
10
10
10
10
FE
10
10
10
10
10
10
10
10
ENDCHAR
STARTCHAR U+25A0 black square
ENCODING 9632
SWIDTH 560 0
DWIDTH 7 0
BBX 7 16 0 -3
BITMAP
00
00
00
00
00
FC
FC
FC
FC
FC
FC
FC
00
00
00
00
ENDCHAR
STARTCHAR U+25A1 white square
ENCODING 9633
SWIDTH 560 0
DWIDTH 7 0
BBX 7 16 0 -3
BITMAP
00
00
00
00
00
FC
FC
CC
CC
CC
FC
FC
00
00
00
00
ENDCHAR
STARTCHAR U+25B2 black up-pointing triangle
ENCODING 9650
SWIDTH 560 0
DWIDTH 7 0
BBX 7 16 0 -3
BITMAP
00
00
00
00
00
20
20
70
70
F8
F8
00
00
00
00
00
ENDCHAR
STARTCHAR U+25BA black right-pointing pointer
ENCODING 9658
SWIDTH 560 0
DWIDTH 7 0
BBX 7 16 0 -3
BITMAP
00
00
00
00
00
C0
F0
FC
FC
F0
C0
00
00
00
00
00
ENDCHAR
STARTCHAR U+25BC black down-pointing triangle
ENCODING 9660
SWIDTH 560 0
DWIDTH 7 0
BBX 7 16 0 -3
BITMAP
00
00
00
00
00
F8
F8
70
70
20
20
00
00
00
00
00
ENDCHAR
STARTCHAR U+25CB white circle
ENCODING 9675
SWIDTH 560 0
DWIDTH 7 0
BBX 7 16 0 -3
BITMAP
00
00
00
00
00
78
FC
CC
CC
CC
FC
78
00
00
00
00
ENDCHAR
STARTCHAR U+25CF black circle
ENCODING 9679
SWIDTH 560 0
DWIDTH 7 0
BBX 7 16 0 -3
BITMAP
00
00
00
00
00
78
FC
FC
FC
FC
FC
78
00
00
00
00
ENDCHAR
STARTCHAR U+2603 snowman
ENCODING 9731
SWIDTH 560 0
DWIDTH 7 0
BBX 7 16 0 -3
BITMAP
00
00
00
00
30
78
78
30
78
FC
FC
FC
78
00
00
00
ENDCHAR
STARTCHAR U+2605 black star
ENCODING 9733
SWIDTH 560 0
DWIDTH 7 0
BBX 7 16 0 -3
BITMAP
00
00
00
00
00
10
10
7C
38
38
28
00
00
00
00
00
ENDCHAR
STARTCHAR U+2606 white star
ENCODING 9734
SWIDTH 560 0
DWIDTH 7 0
BBX 7 16 0 -3
BITMAP
00
00
00
00
00
10
10
7C
28
38
28
00
00
00
00
00
ENDCHAR
STARTCHAR U+263A white smiling face
ENCODING 9786
SWIDTH 560 0
DWIDTH 7 0
BBX 7 16 0 -3
BITMAP
00
00
00
00
38
44
82
AA
82
AA
BA
92
44
38
00
00
ENDCHAR
STARTCHAR U+2665 black heart suit
ENCODING 9829
SWIDTH 560 0
DWIDTH 7 0
BBX 7 16 0 -3
BITMAP
00
00
00
00
00
44
EE
FE
FE
7C
38
10
00
00
00
00
ENDCHAR
STARTCHAR U+269B atom symbol
ENCODING 9883
SWIDTH 560 0
DWIDTH 7 0
BBX 7 16 0 -3
BITMAP
00
00
30
30
00
CC
84
30
30
84
CC
00
30
30
00
00
ENDCHAR
STARTCHAR U+2705 white heavy check mark
ENCODING 9989
SWIDTH 560 0
DWIDTH 7 0
BBX 7 16 0 -3
BITMAP
00
00
00
00
02
06
0A
CA
B2
84
88
70
00
00
00
00
ENDCHAR
STARTCHAR U+2708 airplane
ENCODING 9992
SWIDTH 560 0
DWIDTH 7 0
BBX 7 16 0 -3
BITMAP
00
00
00
00
20
30
18
98
FC
98
18
30
20
00
00
00
ENDCHAR
STARTCHAR U+2713 check mark
ENCODING 10003
SWIDTH 560 0
DWIDTH 7 0
BBX 7 16 0 -3
BITMAP
00
00
00
00
04
0C
8C
D8
D8
70
70
20
20
00
00
00
ENDCHAR
STARTCHAR U+2744 snowflake
ENCODING 10052
SWIDTH 560 0
DWIDTH 7 0
BBX 7 16 0 -3
BITMAP
00
00
00
00
00
20
50
A8
70
A8
50
20
00
00
00
00
ENDCHAR
STARTCHAR U+2800 braille pattern blank
ENCODING 10240
SWIDTH 560 0
DWIDTH 7 0
BBX 7 16 0 -3
BITMAP
00
00
00
00
00
00
00
00
00
00
00
00
00
00
00
00
ENDCHAR
STARTCHAR U+2801 braille pattern dots-1
ENCODING 10241
SWIDTH 560 0
DWIDTH 7 0
BBX 7 16 0 -3
BITMAP
00
60
60
00
00
00
00
00
00
00
00
00
00
00
00
00
ENDCHAR
STARTCHAR U+2802 braille pattern dots-2
ENCODING 10242
SWIDTH 560 0
DWIDTH 7 0
BBX 7 16 0 -3
BITMAP
00
00
00
00
00
60
60
00
00
00
00
00
00
00
00
00
ENDCHAR
STARTCHAR U+2803 braille pattern dots-12
ENCODING 10243
SWIDTH 560 0
DWIDTH 7 0
BBX 7 16 0 -3
BITMAP
00
60
60
00
00
60
60
00
00
00
00
00
00
00
00
00
ENDCHAR
STARTCHAR U+2804 braille pattern dots-3
ENCODING 10244
SWIDTH 560 0
DWIDTH 7 0
BBX 7 16 0 -3
BITMAP
00
00
00
00
00
00
00
00
00
60
60
00
00
00
00
00
ENDCHAR
STARTCHAR U+2805 braille pattern dots-13
ENCODING 10245
SWIDTH 560 0
DWIDTH 7 0
BBX 7 16 0 -3
BITMAP
00
60
60
00
00
00
00
00
00
60
60
00
00
00
00
00
ENDCHAR
STARTCHAR U+2806 braille pattern dots-23
ENCODING 10246
SWIDTH 560 0
DWIDTH 7 0
BBX 7 16 0 -3
BITMAP
00
00
00
00
00
60
60
00
00
60
60
00
00
00
00
00
ENDCHAR
STARTCHAR U+2807 braille pattern dots-123
ENCODING 10247
SWIDTH 560 0
DWIDTH 7 0
BBX 7 16 0 -3
BITMAP
00
60
60
00
00
60
60
00
00
60
60
00
00
00
00
00
ENDCHAR
STARTCHAR U+2808 braille pattern dots-4
ENCODING 10248
SWIDTH 560 0
DWIDTH 7 0
BBX 7 16 0 -3
BITMAP
00
0C
0C
00
00
00
00
00
00
00
00
00
00
00
00
00
ENDCHAR
STARTCHAR U+2809 braille pattern dots-14
ENCODING 10249
SWIDTH 560 0
DWIDTH 7 0
BBX 7 16 0 -3
BITMAP
00
6C
6C
00
00
00
00
00
00
00
00
00
00
00
00
00
ENDCHAR
STARTCHAR U+280A braille pattern dots-24
ENCODING 10250
SWIDTH 560 0
DWIDTH 7 0
BBX 7 16 0 -3
BITMAP
00
0C
0C
00
00
60
60
00
00
00
00
00
00
00
00
00
ENDCHAR
STARTCHAR U+280B braille pattern dots-124
ENCODING 10251
SWIDTH 560 0
DWIDTH 7 0
BBX 7 16 0 -3
BITMAP
00
6C
6C
00
00
60
60
00
00
00
00
00
00
00
00
00
ENDCHAR
STARTCHAR U+280C braille pattern dots-34
ENCODING 10252
SWIDTH 560 0
DWIDTH 7 0
BBX 7 16 0 -3
BITMAP
00
0C
0C
00
00
00
00
00
00
60
60
00
00
00
00
00
ENDCHAR
STARTCHAR U+280D braille pattern dots-134
ENCODING 10253
SWIDTH 560 0
DWIDTH 7 0
BBX 7 16 0 -3
BITMAP
00
6C
6C
00
00
00
00
00
00
60
60
00
00
00
00
00
ENDCHAR
STARTCHAR U+280E braille pattern dots-234
ENCODING 10254
SWIDTH 560 0
DWIDTH 7 0
BBX 7 16 0 -3
BITMAP
00
0C
0C
00
00
60
60
00
00
60
60
00
00
00
00
00
ENDCHAR
STARTCHAR U+280F braille pattern dots-1234
ENCODING 10255
SWIDTH 560 0
DWIDTH 7 0
BBX 7 16 0 -3
BITMAP
00
6C
6C
00
00
60
60
00
00
60
60
00
00
00
00
00
ENDCHAR
STARTCHAR U+2810 braille pattern dots-5
ENCODING 10256
SWIDTH 560 0
DWIDTH 7 0
BBX 7 16 0 -3
BITMAP
00
00
00
00
00
0C
0C
00
00
00
00
00
00
00
00
00
ENDCHAR
STARTCHAR U+2811 braille pattern dots-15
ENCODING 10257
SWIDTH 560 0
DWIDTH 7 0
BBX 7 16 0 -3
BITMAP
00
60
60
00
00
0C
0C
00
00
00
00
00
00
00
00
00
ENDCHAR
STARTCHAR U+2812 braille pattern dots-25
ENCODING 10258
SWIDTH 560 0
DWIDTH 7 0
BBX 7 16 0 -3
BITMAP
00
00
00
00
00
6C
6C
00
00
00
00
00
00
00
00
00
ENDCHAR
STARTCHAR U+2813 braille pattern dots-125
ENCODING 10259
SWIDTH 560 0
DWIDTH 7 0
BBX 7 16 0 -3
BITMAP
00
60
60
00
00
6C
6C
00
00
00
00
00
00
00
00
00
ENDCHAR
STARTCHAR U+2814 braille pattern dots-35
ENCODING 10260
SWIDTH 560 0
DWIDTH 7 0
BBX 7 16 0 -3
BITMAP
00
00
00
00
00
0C
0C
00
00
60
60
00
00
00
00
00
ENDCHAR
STARTCHAR U+2815 braille pattern dots-135
ENCODING 10261
SWIDTH 560 0
DWIDTH 7 0
BBX 7 16 0 -3
BITMAP
00
60
60
00
00
0C
0C
00
00
60
60
00
00
00
00
00
ENDCHAR
STARTCHAR U+2816 braille pattern dots-235
ENCODING 10262
SWIDTH 560 0
DWIDTH 7 0
BBX 7 16 0 -3
BITMAP
00
00
00
00
00
6C
6C
00
00
60
60
00
00
00
00
00
ENDCHAR
STARTCHAR U+2817 braille pattern dots-1235
ENCODING 10263
SWIDTH 560 0
DWIDTH 7 0
BBX 7 16 0 -3
BITMAP
00
60
60
00
00
6C
6C
00
00
60
60
00
00
00
00
00
ENDCHAR
STARTCHAR U+2818 braille pattern dots-45
ENCODING 10264
SWIDTH 560 0
DWIDTH 7 0
BBX 7 16 0 -3
BITMAP
00
0C
0C
00
00
0C
0C
00
00
00
00
00
00
00
00
00
ENDCHAR
STARTCHAR U+2819 braille pattern dots-145
ENCODING 10265
SWIDTH 560 0
DWIDTH 7 0
BBX 7 16 0 -3
BITMAP
00
6C
6C
00
00
0C
0C
00
00
00
00
00
00
00
00
00
ENDCHAR
STARTCHAR U+281A braille pattern dots-245
ENCODING 10266
SWIDTH 560 0
DWIDTH 7 0
BBX 7 16 0 -3
BITMAP
00
0C
0C
00
00
6C
6C
00
00
00
00
00
00
00
00
00
ENDCHAR
STARTCHAR U+281B braille pattern dots-1245
ENCODING 10267
SWIDTH 560 0
DWIDTH 7 0
BBX 7 16 0 -3
BITMAP
00
6C
6C
00
00
6C
6C
00
00
00
00
00
00
00
00
00
ENDCHAR
STARTCHAR U+281C braille pattern dots-345
ENCODING 10268
SWIDTH 560 0
DWIDTH 7 0
BBX 7 16 0 -3
BITMAP
00
0C
0C
00
00
0C
0C
00
00
60
60
00
00
00
00
00
ENDCHAR
STARTCHAR U+281D braille pattern dots-1345
ENCODING 10269
SWIDTH 560 0
DWIDTH 7 0
BBX 7 16 0 -3
BITMAP
00
6C
6C
00
00
0C
0C
00
00
60
60
00
00
00
00
00
ENDCHAR
STARTCHAR U+281E braille pattern dots-2345
ENCODING 10270
SWIDTH 560 0
DWIDTH 7 0
BBX 7 16 0 -3
BITMAP
00
0C
0C
00
00
6C
6C
00
00
60
60
00
00
00
00
00
ENDCHAR
STARTCHAR U+281F braille pattern dots-12345
ENCODING 10271
SWIDTH 560 0
DWIDTH 7 0
BBX 7 16 0 -3
BITMAP
00
6C
6C
00
00
6C
6C
00
00
60
60
00
00
00
00
00
ENDCHAR
STARTCHAR U+2820 braille pattern dots-6
ENCODING 10272
SWIDTH 560 0
DWIDTH 7 0
BBX 7 16 0 -3
BITMAP
00
00
00
00
00
00
00
00
00
0C
0C
00
00
00
00
00
ENDCHAR
STARTCHAR U+2821 braille pattern dots-16
ENCODING 10273
SWIDTH 560 0
DWIDTH 7 0
BBX 7 16 0 -3
BITMAP
00
60
60
00
00
00
00
00
00
0C
0C
00
00
00
00
00
ENDCHAR
STARTCHAR U+2822 braille pattern dots-26
ENCODING 10274
SWIDTH 560 0
DWIDTH 7 0
BBX 7 16 0 -3
BITMAP
00
00
00
00
00
60
60
00
00
0C
0C
00
00
00
00
00
ENDCHAR
STARTCHAR U+2823 braille pattern dots-126
ENCODING 10275
SWIDTH 560 0
DWIDTH 7 0
BBX 7 16 0 -3
BITMAP
00
60
60
00
00
60
60
00
00
0C
0C
00
00
00
00
00
ENDCHAR
STARTCHAR U+2824 braille pattern dots-36
ENCODING 10276
SWIDTH 560 0
DWIDTH 7 0
BBX 7 16 0 -3
BITMAP
00
00
00
00
00
00
00
00
00
6C
6C
00
00
00
00
00
ENDCHAR
STARTCHAR U+2825 braille pattern dots-136
ENCODING 10277
SWIDTH 560 0
DWIDTH 7 0
BBX 7 16 0 -3
BITMAP
00
60
60
00
00
00
00
00
00
6C
6C
00
00
00
00
00
ENDCHAR
STARTCHAR U+2826 braille pattern dots-236
ENCODING 10278
SWIDTH 560 0
DWIDTH 7 0
BBX 7 16 0 -3
BITMAP
00
00
00
00
00
60
60
00
00
6C
6C
00
00
00
00
00
ENDCHAR
STARTCHAR U+2827 braille pattern dots-1236
ENCODING 10279
SWIDTH 560 0
DWIDTH 7 0
BBX 7 16 0 -3
BITMAP
00
60
60
00
00
60
60
00
00
6C
6C
00
00
00
00
00
ENDCHAR
STARTCHAR U+2828 braille pattern dots-46
ENCODING 10280
SWIDTH 560 0
DWIDTH 7 0
BBX 7 16 0 -3
BITMAP
00
0C
0C
00
00
00
00
00
00
0C
0C
00
00
00
00
00
ENDCHAR
STARTCHAR U+2829 braille pattern dots-146
ENCODING 10281
SWIDTH 560 0
DWIDTH 7 0
BBX 7 16 0 -3
BITMAP
00
6C
6C
00
00
00
00
00
00
0C
0C
00
00
00
00
00
ENDCHAR
STARTCHAR U+282A braille pattern dots-246
ENCODING 10282
SWIDTH 560 0
DWIDTH 7 0
BBX 7 16 0 -3
BITMAP
00
0C
0C
00
00
60
60
00
00
0C
0C
00
00
00
00
00
ENDCHAR
STARTCHAR U+282B braille pattern dots-1246
ENCODING 10283
SWIDTH 560 0
DWIDTH 7 0
BBX 7 16 0 -3
BITMAP
00
6C
6C
00
00
60
60
00
00
0C
0C
00
00
00
00
00
ENDCHAR
STARTCHAR U+282C braille pattern dots-346
ENCODING 10284
SWIDTH 560 0
DWIDTH 7 0
BBX 7 16 0 -3
BITMAP
00
0C
0C
00
00
00
00
00
00
6C
6C
00
00
00
00
00
ENDCHAR
STARTCHAR U+282D braille pattern dots-1346
ENCODING 10285
SWIDTH 560 0
DWIDTH 7 0
BBX 7 16 0 -3
BITMAP
00
6C
6C
00
00
00
00
00
00
6C
6C
00
00
00
00
00
ENDCHAR
STARTCHAR U+282E braille pattern dots-2346
ENCODING 10286
SWIDTH 560 0
DWIDTH 7 0
BBX 7 16 0 -3
BITMAP
00
0C
0C
00
00
60
60
00
00
6C
6C
00
00
00
00
00
ENDCHAR
STARTCHAR U+282F braille pattern dots-12346
ENCODING 10287
SWIDTH 560 0
DWIDTH 7 0
BBX 7 16 0 -3
BITMAP
00
6C
6C
00
00
60
60
00
00
6C
6C
00
00
00
00
00
ENDCHAR
STARTCHAR U+2830 braille pattern dots-56
ENCODING 10288
SWIDTH 560 0
DWIDTH 7 0
BBX 7 16 0 -3
BITMAP
00
00
00
00
00
0C
0C
00
00
0C
0C
00
00
00
00
00
ENDCHAR
STARTCHAR U+2831 braille pattern dots-156
ENCODING 10289
SWIDTH 560 0
DWIDTH 7 0
BBX 7 16 0 -3
BITMAP
00
60
60
00
00
0C
0C
00
00
0C
0C
00
00
00
00
00
ENDCHAR
STARTCHAR U+2832 braille pattern dots-256
ENCODING 10290
SWIDTH 560 0
DWIDTH 7 0
BBX 7 16 0 -3
BITMAP
00
00
00
00
00
6C
6C
00
00
0C
0C
00
00
00
00
00
ENDCHAR
STARTCHAR U+2833 braille pattern dots-1256
ENCODING 10291
SWIDTH 560 0
DWIDTH 7 0
BBX 7 16 0 -3
BITMAP
00
60
60
00
00
6C
6C
00
00
0C
0C
00
00
00
00
00
ENDCHAR
STARTCHAR U+2834 braille pattern dots-356
ENCODING 10292
SWIDTH 560 0
DWIDTH 7 0
BBX 7 16 0 -3
BITMAP
00
00
00
00
00
0C
0C
00
00
6C
6C
00
00
00
00
00
ENDCHAR
STARTCHAR U+2835 braille pattern dots-1356
ENCODING 10293
SWIDTH 560 0
DWIDTH 7 0
BBX 7 16 0 -3
BITMAP
00
60
60
00
00
0C
0C
00
00
6C
6C
00
00
00
00
00
ENDCHAR
STARTCHAR U+2836 braille pattern dots-2356
ENCODING 10294
SWIDTH 560 0
DWIDTH 7 0
BBX 7 16 0 -3
BITMAP
00
00
00
00
00
6C
6C
00
00
6C
6C
00
00
00
00
00
ENDCHAR
STARTCHAR U+2837 braille pattern dots-12356
ENCODING 10295
SWIDTH 560 0
DWIDTH 7 0
BBX 7 16 0 -3
BITMAP
00
60
60
00
00
6C
6C
00
00
6C
6C
00
00
00
00
00
ENDCHAR
STARTCHAR U+2838 braille pattern dots-456
ENCODING 10296
SWIDTH 560 0
DWIDTH 7 0
BBX 7 16 0 -3
BITMAP
00
0C
0C
00
00
0C
0C
00
00
0C
0C
00
00
00
00
00
ENDCHAR
STARTCHAR U+2839 braille pattern dots-1456
ENCODING 10297
SWIDTH 560 0
DWIDTH 7 0
BBX 7 16 0 -3
BITMAP
00
6C
6C
00
00
0C
0C
00
00
0C
0C
00
00
00
00
00
ENDCHAR
STARTCHAR U+283A braille pattern dots-2456
ENCODING 10298
SWIDTH 560 0
DWIDTH 7 0
BBX 7 16 0 -3
BITMAP
00
0C
0C
00
00
6C
6C
00
00
0C
0C
00
00
00
00
00
ENDCHAR
STARTCHAR U+283B braille pattern dots-12456
ENCODING 10299
SWIDTH 560 0
DWIDTH 7 0
BBX 7 16 0 -3
BITMAP
00
6C
6C
00
00
6C
6C
00
00
0C
0C
00
00
00
00
00
ENDCHAR
STARTCHAR U+283C braille pattern dots-3456
ENCODING 10300
SWIDTH 560 0
DWIDTH 7 0
BBX 7 16 0 -3
BITMAP
00
0C
0C
00
00
0C
0C
00
00
6C
6C
00
00
00
00
00
ENDCHAR
STARTCHAR U+283D braille pattern dots-13456
ENCODING 10301
SWIDTH 560 0
DWIDTH 7 0
BBX 7 16 0 -3
BITMAP
00
6C
6C
00
00
0C
0C
00
00
6C
6C
00
00
00
00
00
ENDCHAR
STARTCHAR U+283E braille pattern dots-23456
ENCODING 10302
SWIDTH 560 0
DWIDTH 7 0
BBX 7 16 0 -3
BITMAP
00
0C
0C
00
00
6C
6C
00
00
6C
6C
00
00
00
00
00
ENDCHAR
STARTCHAR U+283F braille pattern dots-123456
ENCODING 10303
SWIDTH 560 0
DWIDTH 7 0
BBX 7 16 0 -3
BITMAP
00
6C
6C
00
00
6C
6C
00
00
6C
6C
00
00
00
00
00
ENDCHAR
STARTCHAR U+2840 braille pattern dots-7
ENCODING 10304
SWIDTH 560 0
DWIDTH 7 0
BBX 7 16 0 -3
BITMAP
00
00
00
00
00
00
00
00
00
00
00
00
00
60
60
00
ENDCHAR
STARTCHAR U+2841 braille pattern dots-17
ENCODING 10305
SWIDTH 560 0
DWIDTH 7 0
BBX 7 16 0 -3
BITMAP
00
60
60
00
00
00
00
00
00
00
00
00
00
60
60
00
ENDCHAR
STARTCHAR U+2842 braille pattern dots-27
ENCODING 10306
SWIDTH 560 0
DWIDTH 7 0
BBX 7 16 0 -3
BITMAP
00
00
00
00
00
60
60
00
00
00
00
00
00
60
60
00
ENDCHAR
STARTCHAR U+2843 braille pattern dots-127
ENCODING 10307
SWIDTH 560 0
DWIDTH 7 0
BBX 7 16 0 -3
BITMAP
00
60
60
00
00
60
60
00
00
00
00
00
00
60
60
00
ENDCHAR
STARTCHAR U+2844 braille pattern dots-37
ENCODING 10308
SWIDTH 560 0
DWIDTH 7 0
BBX 7 16 0 -3
BITMAP
00
00
00
00
00
00
00
00
00
60
60
00
00
60
60
00
ENDCHAR
STARTCHAR U+2845 braille pattern dots-137
ENCODING 10309
SWIDTH 560 0
DWIDTH 7 0
BBX 7 16 0 -3
BITMAP
00
60
60
00
00
00
00
00
00
60
60
00
00
60
60
00
ENDCHAR
STARTCHAR U+2846 braille pattern dots-237
ENCODING 10310
SWIDTH 560 0
DWIDTH 7 0
BBX 7 16 0 -3
BITMAP
00
00
00
00
00
60
60
00
00
60
60
00
00
60
60
00
ENDCHAR
STARTCHAR U+2847 braille pattern dots-1237
ENCODING 10311
SWIDTH 560 0
DWIDTH 7 0
BBX 7 16 0 -3
BITMAP
00
60
60
00
00
60
60
00
00
60
60
00
00
60
60
00
ENDCHAR
STARTCHAR U+2848 braille pattern dots-47
ENCODING 10312
SWIDTH 560 0
DWIDTH 7 0
BBX 7 16 0 -3
BITMAP
00
0C
0C
00
00
00
00
00
00
00
00
00
00
60
60
00
ENDCHAR
STARTCHAR U+2849 braille pattern dots-147
ENCODING 10313
SWIDTH 560 0
DWIDTH 7 0
BBX 7 16 0 -3
BITMAP
00
6C
6C
00
00
00
00
00
00
00
00
00
00
60
60
00
ENDCHAR
STARTCHAR U+284A braille pattern dots-247
ENCODING 10314
SWIDTH 560 0
DWIDTH 7 0
BBX 7 16 0 -3
BITMAP
00
0C
0C
00
00
60
60
00
00
00
00
00
00
60
60
00
ENDCHAR
STARTCHAR U+284B braille pattern dots-1247
ENCODING 10315
SWIDTH 560 0
DWIDTH 7 0
BBX 7 16 0 -3
BITMAP
00
6C
6C
00
00
60
60
00
00
00
00
00
00
60
60
00
ENDCHAR
STARTCHAR U+284C braille pattern dots-347
ENCODING 10316
SWIDTH 560 0
DWIDTH 7 0
BBX 7 16 0 -3
BITMAP
00
0C
0C
00
00
00
00
00
00
60
60
00
00
60
60
00
ENDCHAR
STARTCHAR U+284D braille pattern dots-1347
ENCODING 10317
SWIDTH 560 0
DWIDTH 7 0
BBX 7 16 0 -3
BITMAP
00
6C
6C
00
00
00
00
00
00
60
60
00
00
60
60
00
ENDCHAR
STARTCHAR U+284E braille pattern dots-2347
ENCODING 10318
SWIDTH 560 0
DWIDTH 7 0
BBX 7 16 0 -3
BITMAP
00
0C
0C
00
00
60
60
00
00
60
60
00
00
60
60
00
ENDCHAR
STARTCHAR U+284F braille pattern dots-12347
ENCODING 10319
SWIDTH 560 0
DWIDTH 7 0
BBX 7 16 0 -3
BITMAP
00
6C
6C
00
00
60
60
00
00
60
60
00
00
60
60
00
ENDCHAR
STARTCHAR U+2850 braille pattern dots-57
ENCODING 10320
SWIDTH 560 0
DWIDTH 7 0
BBX 7 16 0 -3
BITMAP
00
00
00
00
00
0C
0C
00
00
00
00
00
00
60
60
00
ENDCHAR
STARTCHAR U+2851 braille pattern dots-157
ENCODING 10321
SWIDTH 560 0
DWIDTH 7 0
BBX 7 16 0 -3
BITMAP
00
60
60
00
00
0C
0C
00
00
00
00
00
00
60
60
00
ENDCHAR
STARTCHAR U+2852 braille pattern dots-257
ENCODING 10322
SWIDTH 560 0
DWIDTH 7 0
BBX 7 16 0 -3
BITMAP
00
00
00
00
00
6C
6C
00
00
00
00
00
00
60
60
00
ENDCHAR
STARTCHAR U+2853 braille pattern dots-1257
ENCODING 10323
SWIDTH 560 0
DWIDTH 7 0
BBX 7 16 0 -3
BITMAP
00
60
60
00
00
6C
6C
00
00
00
00
00
00
60
60
00
ENDCHAR
STARTCHAR U+2854 braille pattern dots-357
ENCODING 10324
SWIDTH 560 0
DWIDTH 7 0
BBX 7 16 0 -3
BITMAP
00
00
00
00
00
0C
0C
00
00
60
60
00
00
60
60
00
ENDCHAR
STARTCHAR U+2855 braille pattern dots-1357
ENCODING 10325
SWIDTH 560 0
DWIDTH 7 0
BBX 7 16 0 -3
BITMAP
00
60
60
00
00
0C
0C
00
00
60
60
00
00
60
60
00
ENDCHAR
STARTCHAR U+2856 braille pattern dots-2357
ENCODING 10326
SWIDTH 560 0
DWIDTH 7 0
BBX 7 16 0 -3
BITMAP
00
00
00
00
00
6C
6C
00
00
60
60
00
00
60
60
00
ENDCHAR
STARTCHAR U+2857 braille pattern dots-12357
ENCODING 10327
SWIDTH 560 0
DWIDTH 7 0
BBX 7 16 0 -3
BITMAP
00
60
60
00
00
6C
6C
00
00
60
60
00
00
60
60
00
ENDCHAR
STARTCHAR U+2858 braille pattern dots-457
ENCODING 10328
SWIDTH 560 0
DWIDTH 7 0
BBX 7 16 0 -3
BITMAP
00
0C
0C
00
00
0C
0C
00
00
00
00
00
00
60
60
00
ENDCHAR
STARTCHAR U+2859 braille pattern dots-1457
ENCODING 10329
SWIDTH 560 0
DWIDTH 7 0
BBX 7 16 0 -3
BITMAP
00
6C
6C
00
00
0C
0C
00
00
00
00
00
00
60
60
00
ENDCHAR
STARTCHAR U+285A braille pattern dots-2457
ENCODING 10330
SWIDTH 560 0
DWIDTH 7 0
BBX 7 16 0 -3
BITMAP
00
0C
0C
00
00
6C
6C
00
00
00
00
00
00
60
60
00
ENDCHAR
STARTCHAR U+285B braille pattern dots-12457
ENCODING 10331
SWIDTH 560 0
DWIDTH 7 0
BBX 7 16 0 -3
BITMAP
00
6C
6C
00
00
6C
6C
00
00
00
00
00
00
60
60
00
ENDCHAR
STARTCHAR U+285C braille pattern dots-3457
ENCODING 10332
SWIDTH 560 0
DWIDTH 7 0
BBX 7 16 0 -3
BITMAP
00
0C
0C
00
00
0C
0C
00
00
60
60
00
00
60
60
00
ENDCHAR
STARTCHAR U+285D braille pattern dots-13457
ENCODING 10333
SWIDTH 560 0
DWIDTH 7 0
BBX 7 16 0 -3
BITMAP
00
6C
6C
00
00
0C
0C
00
00
60
60
00
00
60
60
00
ENDCHAR
STARTCHAR U+285E braille pattern dots-23457
ENCODING 10334
SWIDTH 560 0
DWIDTH 7 0
BBX 7 16 0 -3
BITMAP
00
0C
0C
00
00
6C
6C
00
00
60
60
00
00
60
60
00
ENDCHAR
STARTCHAR U+285F braille pattern dots-123457
ENCODING 10335
SWIDTH 560 0
DWIDTH 7 0
BBX 7 16 0 -3
BITMAP
00
6C
6C
00
00
6C
6C
00
00
60
60
00
00
60
60
00
ENDCHAR
STARTCHAR U+2860 braille pattern dots-67
ENCODING 10336
SWIDTH 560 0
DWIDTH 7 0
BBX 7 16 0 -3
BITMAP
00
00
00
00
00
00
00
00
00
0C
0C
00
00
60
60
00
ENDCHAR
STARTCHAR U+2861 braille pattern dots-167
ENCODING 10337
SWIDTH 560 0
DWIDTH 7 0
BBX 7 16 0 -3
BITMAP
00
60
60
00
00
00
00
00
00
0C
0C
00
00
60
60
00
ENDCHAR
STARTCHAR U+2862 braille pattern dots-267
ENCODING 10338
SWIDTH 560 0
DWIDTH 7 0
BBX 7 16 0 -3
BITMAP
00
00
00
00
00
60
60
00
00
0C
0C
00
00
60
60
00
ENDCHAR
STARTCHAR U+2863 braille pattern dots-1267
ENCODING 10339
SWIDTH 560 0
DWIDTH 7 0
BBX 7 16 0 -3
BITMAP
00
60
60
00
00
60
60
00
00
0C
0C
00
00
60
60
00
ENDCHAR
STARTCHAR U+2864 braille pattern dots-367
ENCODING 10340
SWIDTH 560 0
DWIDTH 7 0
BBX 7 16 0 -3
BITMAP
00
00
00
00
00
00
00
00
00
6C
6C
00
00
60
60
00
ENDCHAR
STARTCHAR U+2865 braille pattern dots-1367
ENCODING 10341
SWIDTH 560 0
DWIDTH 7 0
BBX 7 16 0 -3
BITMAP
00
60
60
00
00
00
00
00
00
6C
6C
00
00
60
60
00
ENDCHAR
STARTCHAR U+2866 braille pattern dots-2367
ENCODING 10342
SWIDTH 560 0
DWIDTH 7 0
BBX 7 16 0 -3
BITMAP
00
00
00
00
00
60
60
00
00
6C
6C
00
00
60
60
00
ENDCHAR
STARTCHAR U+2867 braille pattern dots-12367
ENCODING 10343
SWIDTH 560 0
DWIDTH 7 0
BBX 7 16 0 -3
BITMAP
00
60
60
00
00
60
60
00
00
6C
6C
00
00
60
60
00
ENDCHAR
STARTCHAR U+2868 braille pattern dots-467
ENCODING 10344
SWIDTH 560 0
DWIDTH 7 0
BBX 7 16 0 -3
BITMAP
00
0C
0C
00
00
00
00
00
00
0C
0C
00
00
60
60
00
ENDCHAR
STARTCHAR U+2869 braille pattern dots-1467
ENCODING 10345
SWIDTH 560 0
DWIDTH 7 0
BBX 7 16 0 -3
BITMAP
00
6C
6C
00
00
00
00
00
00
0C
0C
00
00
60
60
00
ENDCHAR
STARTCHAR U+286A braille pattern dots-2467
ENCODING 10346
SWIDTH 560 0
DWIDTH 7 0
BBX 7 16 0 -3
BITMAP
00
0C
0C
00
00
60
60
00
00
0C
0C
00
00
60
60
00
ENDCHAR
STARTCHAR U+286B braille pattern dots-12467
ENCODING 10347
SWIDTH 560 0
DWIDTH 7 0
BBX 7 16 0 -3
BITMAP
00
6C
6C
00
00
60
60
00
00
0C
0C
00
00
60
60
00
ENDCHAR
STARTCHAR U+286C braille pattern dots-3467
ENCODING 10348
SWIDTH 560 0
DWIDTH 7 0
BBX 7 16 0 -3
BITMAP
00
0C
0C
00
00
00
00
00
00
6C
6C
00
00
60
60
00
ENDCHAR
STARTCHAR U+286D braille pattern dots-13467
ENCODING 10349
SWIDTH 560 0
DWIDTH 7 0
BBX 7 16 0 -3
BITMAP
00
6C
6C
00
00
00
00
00
00
6C
6C
00
00
60
60
00
ENDCHAR
STARTCHAR U+286E braille pattern dots-23467
ENCODING 10350
SWIDTH 560 0
DWIDTH 7 0
BBX 7 16 0 -3
BITMAP
00
0C
0C
00
00
60
60
00
00
6C
6C
00
00
60
60
00
ENDCHAR
STARTCHAR U+286F braille pattern dots-123467
ENCODING 10351
SWIDTH 560 0
DWIDTH 7 0
BBX 7 16 0 -3
BITMAP
00
6C
6C
00
00
60
60
00
00
6C
6C
00
00
60
60
00
ENDCHAR
STARTCHAR U+2870 braille pattern dots-567
ENCODING 10352
SWIDTH 560 0
DWIDTH 7 0
BBX 7 16 0 -3
BITMAP
00
00
00
00
00
0C
0C
00
00
0C
0C
00
00
60
60
00
ENDCHAR
STARTCHAR U+2871 braille pattern dots-1567
ENCODING 10353
SWIDTH 560 0
DWIDTH 7 0
BBX 7 16 0 -3
BITMAP
00
60
60
00
00
0C
0C
00
00
0C
0C
00
00
60
60
00
ENDCHAR
STARTCHAR U+2872 braille pattern dots-2567
ENCODING 10354
SWIDTH 560 0
DWIDTH 7 0
BBX 7 16 0 -3
BITMAP
00
00
00
00
00
6C
6C
00
00
0C
0C
00
00
60
60
00
ENDCHAR
STARTCHAR U+2873 braille pattern dots-12567
ENCODING 10355
SWIDTH 560 0
DWIDTH 7 0
BBX 7 16 0 -3
BITMAP
00
60
60
00
00
6C
6C
00
00
0C
0C
00
00
60
60
00
ENDCHAR
STARTCHAR U+2874 braille pattern dots-3567
ENCODING 10356
SWIDTH 560 0
DWIDTH 7 0
BBX 7 16 0 -3
BITMAP
00
00
00
00
00
0C
0C
00
00
6C
6C
00
00
60
60
00
ENDCHAR
STARTCHAR U+2875 braille pattern dots-13567
ENCODING 10357
SWIDTH 560 0
DWIDTH 7 0
BBX 7 16 0 -3
BITMAP
00
60
60
00
00
0C
0C
00
00
6C
6C
00
00
60
60
00
ENDCHAR
STARTCHAR U+2876 braille pattern dots-23567
ENCODING 10358
SWIDTH 560 0
DWIDTH 7 0
BBX 7 16 0 -3
BITMAP
00
00
00
00
00
6C
6C
00
00
6C
6C
00
00
60
60
00
ENDCHAR
STARTCHAR U+2877 braille pattern dots-123567
ENCODING 10359
SWIDTH 560 0
DWIDTH 7 0
BBX 7 16 0 -3
BITMAP
00
60
60
00
00
6C
6C
00
00
6C
6C
00
00
60
60
00
ENDCHAR
STARTCHAR U+2878 braille pattern dots-4567
ENCODING 10360
SWIDTH 560 0
DWIDTH 7 0
BBX 7 16 0 -3
BITMAP
00
0C
0C
00
00
0C
0C
00
00
0C
0C
00
00
60
60
00
ENDCHAR
STARTCHAR U+2879 braille pattern dots-14567
ENCODING 10361
SWIDTH 560 0
DWIDTH 7 0
BBX 7 16 0 -3
BITMAP
00
6C
6C
00
00
0C
0C
00
00
0C
0C
00
00
60
60
00
ENDCHAR
STARTCHAR U+287A braille pattern dots-24567
ENCODING 10362
SWIDTH 560 0
DWIDTH 7 0
BBX 7 16 0 -3
BITMAP
00
0C
0C
00
00
6C
6C
00
00
0C
0C
00
00
60
60
00
ENDCHAR
STARTCHAR U+287B braille pattern dots-124567
ENCODING 10363
SWIDTH 560 0
DWIDTH 7 0
BBX 7 16 0 -3
BITMAP
00
6C
6C
00
00
6C
6C
00
00
0C
0C
00
00
60
60
00
ENDCHAR
STARTCHAR U+287C braille pattern dots-34567
ENCODING 10364
SWIDTH 560 0
DWIDTH 7 0
BBX 7 16 0 -3
BITMAP
00
0C
0C
00
00
0C
0C
00
00
6C
6C
00
00
60
60
00
ENDCHAR
STARTCHAR U+287D braille pattern dots-134567
ENCODING 10365
SWIDTH 560 0
DWIDTH 7 0
BBX 7 16 0 -3
BITMAP
00
6C
6C
00
00
0C
0C
00
00
6C
6C
00
00
60
60
00
ENDCHAR
STARTCHAR U+287E braille pattern dots-234567
ENCODING 10366
SWIDTH 560 0
DWIDTH 7 0
BBX 7 16 0 -3
BITMAP
00
0C
0C
00
00
6C
6C
00
00
6C
6C
00
00
60
60
00
ENDCHAR
STARTCHAR U+287F braille pattern dots-1234567
ENCODING 10367
SWIDTH 560 0
DWIDTH 7 0
BBX 7 16 0 -3
BITMAP
00
6C
6C
00
00
6C
6C
00
00
6C
6C
00
00
60
60
00
ENDCHAR
STARTCHAR U+2880 braille pattern dots-8
ENCODING 10368
SWIDTH 560 0
DWIDTH 7 0
BBX 7 16 0 -3
BITMAP
00
00
00
00
00
00
00
00
00
00
00
00
00
0C
0C
00
ENDCHAR
STARTCHAR U+2881 braille pattern dots-18
ENCODING 10369
SWIDTH 560 0
DWIDTH 7 0
BBX 7 16 0 -3
BITMAP
00
60
60
00
00
00
00
00
00
00
00
00
00
0C
0C
00
ENDCHAR
STARTCHAR U+2882 braille pattern dots-28
ENCODING 10370
SWIDTH 560 0
DWIDTH 7 0
BBX 7 16 0 -3
BITMAP
00
00
00
00
00
60
60
00
00
00
00
00
00
0C
0C
00
ENDCHAR
STARTCHAR U+2883 braille pattern dots-128
ENCODING 10371
SWIDTH 560 0
DWIDTH 7 0
BBX 7 16 0 -3
BITMAP
00
60
60
00
00
60
60
00
00
00
00
00
00
0C
0C
00
ENDCHAR
STARTCHAR U+2884 braille pattern dots-38
ENCODING 10372
SWIDTH 560 0
DWIDTH 7 0
BBX 7 16 0 -3
BITMAP
00
00
00
00
00
00
00
00
00
60
60
00
00
0C
0C
00
ENDCHAR
STARTCHAR U+2885 braille pattern dots-138
ENCODING 10373
SWIDTH 560 0
DWIDTH 7 0
BBX 7 16 0 -3
BITMAP
00
60
60
00
00
00
00
00
00
60
60
00
00
0C
0C
00
ENDCHAR
STARTCHAR U+2886 braille pattern dots-238
ENCODING 10374
SWIDTH 560 0
DWIDTH 7 0
BBX 7 16 0 -3
BITMAP
00
00
00
00
00
60
60
00
00
60
60
00
00
0C
0C
00
ENDCHAR
STARTCHAR U+2887 braille pattern dots-1238
ENCODING 10375
SWIDTH 560 0
DWIDTH 7 0
BBX 7 16 0 -3
BITMAP
00
60
60
00
00
60
60
00
00
60
60
00
00
0C
0C
00
ENDCHAR
STARTCHAR U+2888 braille pattern dots-48
ENCODING 10376
SWIDTH 560 0
DWIDTH 7 0
BBX 7 16 0 -3
BITMAP
00
0C
0C
00
00
00
00
00
00
00
00
00
00
0C
0C
00
ENDCHAR
STARTCHAR U+2889 braille pattern dots-148
ENCODING 10377
SWIDTH 560 0
DWIDTH 7 0
BBX 7 16 0 -3
BITMAP
00
6C
6C
00
00
00
00
00
00
00
00
00
00
0C
0C
00
ENDCHAR
STARTCHAR U+288A braille pattern dots-248
ENCODING 10378
SWIDTH 560 0
DWIDTH 7 0
BBX 7 16 0 -3
BITMAP
00
0C
0C
00
00
60
60
00
00
00
00
00
00
0C
0C
00
ENDCHAR
STARTCHAR U+288B braille pattern dots-1248
ENCODING 10379
SWIDTH 560 0
DWIDTH 7 0
BBX 7 16 0 -3
BITMAP
00
6C
6C
00
00
60
60
00
00
00
00
00
00
0C
0C
00
ENDCHAR
STARTCHAR U+288C braille pattern dots-348
ENCODING 10380
SWIDTH 560 0
DWIDTH 7 0
BBX 7 16 0 -3
BITMAP
00
0C
0C
00
00
00
00
00
00
60
60
00
00
0C
0C
00
ENDCHAR
STARTCHAR U+288D braille pattern dots-1348
ENCODING 10381
SWIDTH 560 0
DWIDTH 7 0
BBX 7 16 0 -3
BITMAP
00
6C
6C
00
00
00
00
00
00
60
60
00
00
0C
0C
00
ENDCHAR
STARTCHAR U+288E braille pattern dots-2348
ENCODING 10382
SWIDTH 560 0
DWIDTH 7 0
BBX 7 16 0 -3
BITMAP
00
0C
0C
00
00
60
60
00
00
60
60
00
00
0C
0C
00
ENDCHAR
STARTCHAR U+288F braille pattern dots-12348
ENCODING 10383
SWIDTH 560 0
DWIDTH 7 0
BBX 7 16 0 -3
BITMAP
00
6C
6C
00
00
60
60
00
00
60
60
00
00
0C
0C
00
ENDCHAR
STARTCHAR U+2890 braille pattern dots-58
ENCODING 10384
SWIDTH 560 0
DWIDTH 7 0
BBX 7 16 0 -3
BITMAP
00
00
00
00
00
0C
0C
00
00
00
00
00
00
0C
0C
00
ENDCHAR
STARTCHAR U+2891 braille pattern dots-158
ENCODING 10385
SWIDTH 560 0
DWIDTH 7 0
BBX 7 16 0 -3
BITMAP
00
60
60
00
00
0C
0C
00
00
00
00
00
00
0C
0C
00
ENDCHAR
STARTCHAR U+2892 braille pattern dots-258
ENCODING 10386
SWIDTH 560 0
DWIDTH 7 0
BBX 7 16 0 -3
BITMAP
00
00
00
00
00
6C
6C
00
00
00
00
00
00
0C
0C
00
ENDCHAR
STARTCHAR U+2893 braille pattern dots-1258
ENCODING 10387
SWIDTH 560 0
DWIDTH 7 0
BBX 7 16 0 -3
BITMAP
00
60
60
00
00
6C
6C
00
00
00
00
00
00
0C
0C
00
ENDCHAR
STARTCHAR U+2894 braille pattern dots-358
ENCODING 10388
SWIDTH 560 0
DWIDTH 7 0
BBX 7 16 0 -3
BITMAP
00
00
00
00
00
0C
0C
00
00
60
60
00
00
0C
0C
00
ENDCHAR
STARTCHAR U+2895 braille pattern dots-1358
ENCODING 10389
SWIDTH 560 0
DWIDTH 7 0
BBX 7 16 0 -3
BITMAP
00
60
60
00
00
0C
0C
00
00
60
60
00
00
0C
0C
00
ENDCHAR
STARTCHAR U+2896 braille pattern dots-2358
ENCODING 10390
SWIDTH 560 0
DWIDTH 7 0
BBX 7 16 0 -3
BITMAP
00
00
00
00
00
6C
6C
00
00
60
60
00
00
0C
0C
00
ENDCHAR
STARTCHAR U+2897 braille pattern dots-12358
ENCODING 10391
SWIDTH 560 0
DWIDTH 7 0
BBX 7 16 0 -3
BITMAP
00
60
60
00
00
6C
6C
00
00
60
60
00
00
0C
0C
00
ENDCHAR
STARTCHAR U+2898 braille pattern dots-458
ENCODING 10392
SWIDTH 560 0
DWIDTH 7 0
BBX 7 16 0 -3
BITMAP
00
0C
0C
00
00
0C
0C
00
00
00
00
00
00
0C
0C
00
ENDCHAR
STARTCHAR U+2899 braille pattern dots-1458
ENCODING 10393
SWIDTH 560 0
DWIDTH 7 0
BBX 7 16 0 -3
BITMAP
00
6C
6C
00
00
0C
0C
00
00
00
00
00
00
0C
0C
00
ENDCHAR
STARTCHAR U+289A braille pattern dots-2458
ENCODING 10394
SWIDTH 560 0
DWIDTH 7 0
BBX 7 16 0 -3
BITMAP
00
0C
0C
00
00
6C
6C
00
00
00
00
00
00
0C
0C
00
ENDCHAR
STARTCHAR U+289B braille pattern dots-12458
ENCODING 10395
SWIDTH 560 0
DWIDTH 7 0
BBX 7 16 0 -3
BITMAP
00
6C
6C
00
00
6C
6C
00
00
00
00
00
00
0C
0C
00
ENDCHAR
STARTCHAR U+289C braille pattern dots-3458
ENCODING 10396
SWIDTH 560 0
DWIDTH 7 0
BBX 7 16 0 -3
BITMAP
00
0C
0C
00
00
0C
0C
00
00
60
60
00
00
0C
0C
00
ENDCHAR
STARTCHAR U+289D braille pattern dots-13458
ENCODING 10397
SWIDTH 560 0
DWIDTH 7 0
BBX 7 16 0 -3
BITMAP
00
6C
6C
00
00
0C
0C
00
00
60
60
00
00
0C
0C
00
ENDCHAR
STARTCHAR U+289E braille pattern dots-23458
ENCODING 10398
SWIDTH 560 0
DWIDTH 7 0
BBX 7 16 0 -3
BITMAP
00
0C
0C
00
00
6C
6C
00
00
60
60
00
00
0C
0C
00
ENDCHAR
STARTCHAR U+289F braille pattern dots-123458
ENCODING 10399
SWIDTH 560 0
DWIDTH 7 0
BBX 7 16 0 -3
BITMAP
00
6C
6C
00
00
6C
6C
00
00
60
60
00
00
0C
0C
00
ENDCHAR
STARTCHAR U+28A0 braille pattern dots-68
ENCODING 10400
SWIDTH 560 0
DWIDTH 7 0
BBX 7 16 0 -3
BITMAP
00
00
00
00
00
00
00
00
00
0C
0C
00
00
0C
0C
00
ENDCHAR
STARTCHAR U+28A1 braille pattern dots-168
ENCODING 10401
SWIDTH 560 0
DWIDTH 7 0
BBX 7 16 0 -3
BITMAP
00
60
60
00
00
00
00
00
00
0C
0C
00
00
0C
0C
00
ENDCHAR
STARTCHAR U+28A2 braille pattern dots-268
ENCODING 10402
SWIDTH 560 0
DWIDTH 7 0
BBX 7 16 0 -3
BITMAP
00
00
00
00
00
60
60
00
00
0C
0C
00
00
0C
0C
00
ENDCHAR
STARTCHAR U+28A3 braille pattern dots-1268
ENCODING 10403
SWIDTH 560 0
DWIDTH 7 0
BBX 7 16 0 -3
BITMAP
00
60
60
00
00
60
60
00
00
0C
0C
00
00
0C
0C
00
ENDCHAR
STARTCHAR U+28A4 braille pattern dots-368
ENCODING 10404
SWIDTH 560 0
DWIDTH 7 0
BBX 7 16 0 -3
BITMAP
00
00
00
00
00
00
00
00
00
6C
6C
00
00
0C
0C
00
ENDCHAR
STARTCHAR U+28A5 braille pattern dots-1368
ENCODING 10405
SWIDTH 560 0
DWIDTH 7 0
BBX 7 16 0 -3
BITMAP
00
60
60
00
00
00
00
00
00
6C
6C
00
00
0C
0C
00
ENDCHAR
STARTCHAR U+28A6 braille pattern dots-2368
ENCODING 10406
SWIDTH 560 0
DWIDTH 7 0
BBX 7 16 0 -3
BITMAP
00
00
00
00
00
60
60
00
00
6C
6C
00
00
0C
0C
00
ENDCHAR
STARTCHAR U+28A7 braille pattern dots-12368
ENCODING 10407
SWIDTH 560 0
DWIDTH 7 0
BBX 7 16 0 -3
BITMAP
00
60
60
00
00
60
60
00
00
6C
6C
00
00
0C
0C
00
ENDCHAR
STARTCHAR U+28A8 braille pattern dots-468
ENCODING 10408
SWIDTH 560 0
DWIDTH 7 0
BBX 7 16 0 -3
BITMAP
00
0C
0C
00
00
00
00
00
00
0C
0C
00
00
0C
0C
00
ENDCHAR
STARTCHAR U+28A9 braille pattern dots-1468
ENCODING 10409
SWIDTH 560 0
DWIDTH 7 0
BBX 7 16 0 -3
BITMAP
00
6C
6C
00
00
00
00
00
00
0C
0C
00
00
0C
0C
00
ENDCHAR
STARTCHAR U+28AA braille pattern dots-2468
ENCODING 10410
SWIDTH 560 0
DWIDTH 7 0
BBX 7 16 0 -3
BITMAP
00
0C
0C
00
00
60
60
00
00
0C
0C
00
00
0C
0C
00
ENDCHAR
STARTCHAR U+28AB braille pattern dots-12468
ENCODING 10411
SWIDTH 560 0
DWIDTH 7 0
BBX 7 16 0 -3
BITMAP
00
6C
6C
00
00
60
60
00
00
0C
0C
00
00
0C
0C
00
ENDCHAR
STARTCHAR U+28AC braille pattern dots-3468
ENCODING 10412
SWIDTH 560 0
DWIDTH 7 0
BBX 7 16 0 -3
BITMAP
00
0C
0C
00
00
00
00
00
00
6C
6C
00
00
0C
0C
00
ENDCHAR
STARTCHAR U+28AD braille pattern dots-13468
ENCODING 10413
SWIDTH 560 0
DWIDTH 7 0
BBX 7 16 0 -3
BITMAP
00
6C
6C
00
00
00
00
00
00
6C
6C
00
00
0C
0C
00
ENDCHAR
STARTCHAR U+28AE braille pattern dots-23468
ENCODING 10414
SWIDTH 560 0
DWIDTH 7 0
BBX 7 16 0 -3
BITMAP
00
0C
0C
00
00
60
60
00
00
6C
6C
00
00
0C
0C
00
ENDCHAR
STARTCHAR U+28AF braille pattern dots-123468
ENCODING 10415
SWIDTH 560 0
DWIDTH 7 0
BBX 7 16 0 -3
BITMAP
00
6C
6C
00
00
60
60
00
00
6C
6C
00
00
0C
0C
00
ENDCHAR
STARTCHAR U+28B0 braille pattern dots-568
ENCODING 10416
SWIDTH 560 0
DWIDTH 7 0
BBX 7 16 0 -3
BITMAP
00
00
00
00
00
0C
0C
00
00
0C
0C
00
00
0C
0C
00
ENDCHAR
STARTCHAR U+28B1 braille pattern dots-1568
ENCODING 10417
SWIDTH 560 0
DWIDTH 7 0
BBX 7 16 0 -3
BITMAP
00
60
60
00
00
0C
0C
00
00
0C
0C
00
00
0C
0C
00
ENDCHAR
STARTCHAR U+28B2 braille pattern dots-2568
ENCODING 10418
SWIDTH 560 0
DWIDTH 7 0
BBX 7 16 0 -3
BITMAP
00
00
00
00
00
6C
6C
00
00
0C
0C
00
00
0C
0C
00
ENDCHAR
STARTCHAR U+28B3 braille pattern dots-12568
ENCODING 10419
SWIDTH 560 0
DWIDTH 7 0
BBX 7 16 0 -3
BITMAP
00
60
60
00
00
6C
6C
00
00
0C
0C
00
00
0C
0C
00
ENDCHAR
STARTCHAR U+28B4 braille pattern dots-3568
ENCODING 10420
SWIDTH 560 0
DWIDTH 7 0
BBX 7 16 0 -3
BITMAP
00
00
00
00
00
0C
0C
00
00
6C
6C
00
00
0C
0C
00
ENDCHAR
STARTCHAR U+28B5 braille pattern dots-13568
ENCODING 10421
SWIDTH 560 0
DWIDTH 7 0
BBX 7 16 0 -3
BITMAP
00
60
60
00
00
0C
0C
00
00
6C
6C
00
00
0C
0C
00
ENDCHAR
STARTCHAR U+28B6 braille pattern dots-23568
ENCODING 10422
SWIDTH 560 0
DWIDTH 7 0
BBX 7 16 0 -3
BITMAP
00
00
00
00
00
6C
6C
00
00
6C
6C
00
00
0C
0C
00
ENDCHAR
STARTCHAR U+28B7 braille pattern dots-123568
ENCODING 10423
SWIDTH 560 0
DWIDTH 7 0
BBX 7 16 0 -3
BITMAP
00
60
60
00
00
6C
6C
00
00
6C
6C
00
00
0C
0C
00
ENDCHAR
STARTCHAR U+28B8 braille pattern dots-4568
ENCODING 10424
SWIDTH 560 0
DWIDTH 7 0
BBX 7 16 0 -3
BITMAP
00
0C
0C
00
00
0C
0C
00
00
0C
0C
00
00
0C
0C
00
ENDCHAR
STARTCHAR U+28B9 braille pattern dots-14568
ENCODING 10425
SWIDTH 560 0
DWIDTH 7 0
BBX 7 16 0 -3
BITMAP
00
6C
6C
00
00
0C
0C
00
00
0C
0C
00
00
0C
0C
00
ENDCHAR
STARTCHAR U+28BA braille pattern dots-24568
ENCODING 10426
SWIDTH 560 0
DWIDTH 7 0
BBX 7 16 0 -3
BITMAP
00
0C
0C
00
00
6C
6C
00
00
0C
0C
00
00
0C
0C
00
ENDCHAR
STARTCHAR U+28BB braille pattern dots-124568
ENCODING 10427
SWIDTH 560 0
DWIDTH 7 0
BBX 7 16 0 -3
BITMAP
00
6C
6C
00
00
6C
6C
00
00
0C
0C
00
00
0C
0C
00
ENDCHAR
STARTCHAR U+28BC braille pattern dots-34568
ENCODING 10428
SWIDTH 560 0
DWIDTH 7 0
BBX 7 16 0 -3
BITMAP
00
0C
0C
00
00
0C
0C
00
00
6C
6C
00
00
0C
0C
00
ENDCHAR
STARTCHAR U+28BD braille pattern dots-134568
ENCODING 10429
SWIDTH 560 0
DWIDTH 7 0
BBX 7 16 0 -3
BITMAP
00
6C
6C
00
00
0C
0C
00
00
6C
6C
00
00
0C
0C
00
ENDCHAR
STARTCHAR U+28BE braille pattern dots-234568
ENCODING 10430
SWIDTH 560 0
DWIDTH 7 0
BBX 7 16 0 -3
BITMAP
00
0C
0C
00
00
6C
6C
00
00
6C
6C
00
00
0C
0C
00
ENDCHAR
STARTCHAR U+28BF braille pattern dots-1234568
ENCODING 10431
SWIDTH 560 0
DWIDTH 7 0
BBX 7 16 0 -3
BITMAP
00
6C
6C
00
00
6C
6C
00
00
6C
6C
00
00
0C
0C
00
ENDCHAR
STARTCHAR U+28C0 braille pattern dots-78
ENCODING 10432
SWIDTH 560 0
DWIDTH 7 0
BBX 7 16 0 -3
BITMAP
00
00
00
00
00
00
00
00
00
00
00
00
00
6C
6C
00
ENDCHAR
STARTCHAR U+28C1 braille pattern dots-178
ENCODING 10433
SWIDTH 560 0
DWIDTH 7 0
BBX 7 16 0 -3
BITMAP
00
60
60
00
00
00
00
00
00
00
00
00
00
6C
6C
00
ENDCHAR
STARTCHAR U+28C2 braille pattern dots-278
ENCODING 10434
SWIDTH 560 0
DWIDTH 7 0
BBX 7 16 0 -3
BITMAP
00
00
00
00
00
60
60
00
00
00
00
00
00
6C
6C
00
ENDCHAR
STARTCHAR U+28C3 braille pattern dots-1278
ENCODING 10435
SWIDTH 560 0
DWIDTH 7 0
BBX 7 16 0 -3
BITMAP
00
60
60
00
00
60
60
00
00
00
00
00
00
6C
6C
00
ENDCHAR
STARTCHAR U+28C4 braille pattern dots-378
ENCODING 10436
SWIDTH 560 0
DWIDTH 7 0
BBX 7 16 0 -3
BITMAP
00
00
00
00
00
00
00
00
00
60
60
00
00
6C
6C
00
ENDCHAR
STARTCHAR U+28C5 braille pattern dots-1378
ENCODING 10437
SWIDTH 560 0
DWIDTH 7 0
BBX 7 16 0 -3
BITMAP
00
60
60
00
00
00
00
00
00
60
60
00
00
6C
6C
00
ENDCHAR
STARTCHAR U+28C6 braille pattern dots-2378
ENCODING 10438
SWIDTH 560 0
DWIDTH 7 0
BBX 7 16 0 -3
BITMAP
00
00
00
00
00
60
60
00
00
60
60
00
00
6C
6C
00
ENDCHAR
STARTCHAR U+28C7 braille pattern dots-12378
ENCODING 10439
SWIDTH 560 0
DWIDTH 7 0
BBX 7 16 0 -3
BITMAP
00
60
60
00
00
60
60
00
00
60
60
00
00
6C
6C
00
ENDCHAR
STARTCHAR U+28C8 braille pattern dots-478
ENCODING 10440
SWIDTH 560 0
DWIDTH 7 0
BBX 7 16 0 -3
BITMAP
00
0C
0C
00
00
00
00
00
00
00
00
00
00
6C
6C
00
ENDCHAR
STARTCHAR U+28C9 braille pattern dots-1478
ENCODING 10441
SWIDTH 560 0
DWIDTH 7 0
BBX 7 16 0 -3
BITMAP
00
6C
6C
00
00
00
00
00
00
00
00
00
00
6C
6C
00
ENDCHAR
STARTCHAR U+28CA braille pattern dots-2478
ENCODING 10442
SWIDTH 560 0
DWIDTH 7 0
BBX 7 16 0 -3
BITMAP
00
0C
0C
00
00
60
60
00
00
00
00
00
00
6C
6C
00
ENDCHAR
STARTCHAR U+28CB braille pattern dots-12478
ENCODING 10443
SWIDTH 560 0
DWIDTH 7 0
BBX 7 16 0 -3
BITMAP
00
6C
6C
00
00
60
60
00
00
00
00
00
00
6C
6C
00
ENDCHAR
STARTCHAR U+28CC braille pattern dots-3478
ENCODING 10444
SWIDTH 560 0
DWIDTH 7 0
BBX 7 16 0 -3
BITMAP
00
0C
0C
00
00
00
00
00
00
60
60
00
00
6C
6C
00
ENDCHAR
STARTCHAR U+28CD braille pattern dots-13478
ENCODING 10445
SWIDTH 560 0
DWIDTH 7 0
BBX 7 16 0 -3
BITMAP
00
6C
6C
00
00
00
00
00
00
60
60
00
00
6C
6C
00
ENDCHAR
STARTCHAR U+28CE braille pattern dots-23478
ENCODING 10446
SWIDTH 560 0
DWIDTH 7 0
BBX 7 16 0 -3
BITMAP
00
0C
0C
00
00
60
60
00
00
60
60
00
00
6C
6C
00
ENDCHAR
STARTCHAR U+28CF braille pattern dots-123478
ENCODING 10447
SWIDTH 560 0
DWIDTH 7 0
BBX 7 16 0 -3
BITMAP
00
6C
6C
00
00
60
60
00
00
60
60
00
00
6C
6C
00
ENDCHAR
STARTCHAR U+28D0 braille pattern dots-578
ENCODING 10448
SWIDTH 560 0
DWIDTH 7 0
BBX 7 16 0 -3
BITMAP
00
00
00
00
00
0C
0C
00
00
00
00
00
00
6C
6C
00
ENDCHAR
STARTCHAR U+28D1 braille pattern dots-1578
ENCODING 10449
SWIDTH 560 0
DWIDTH 7 0
BBX 7 16 0 -3
BITMAP
00
60
60
00
00
0C
0C
00
00
00
00
00
00
6C
6C
00
ENDCHAR
STARTCHAR U+28D2 braille pattern dots-2578
ENCODING 10450
SWIDTH 560 0
DWIDTH 7 0
BBX 7 16 0 -3
BITMAP
00
00
00
00
00
6C
6C
00
00
00
00
00
00
6C
6C
00
ENDCHAR
STARTCHAR U+28D3 braille pattern dots-12578
ENCODING 10451
SWIDTH 560 0
DWIDTH 7 0
BBX 7 16 0 -3
BITMAP
00
60
60
00
00
6C
6C
00
00
00
00
00
00
6C
6C
00
ENDCHAR
STARTCHAR U+28D4 braille pattern dots-3578
ENCODING 10452
SWIDTH 560 0
DWIDTH 7 0
BBX 7 16 0 -3
BITMAP
00
00
00
00
00
0C
0C
00
00
60
60
00
00
6C
6C
00
ENDCHAR
STARTCHAR U+28D5 braille pattern dots-13578
ENCODING 10453
SWIDTH 560 0
DWIDTH 7 0
BBX 7 16 0 -3
BITMAP
00
60
60
00
00
0C
0C
00
00
60
60
00
00
6C
6C
00
ENDCHAR
STARTCHAR U+28D6 braille pattern dots-23578
ENCODING 10454
SWIDTH 560 0
DWIDTH 7 0
BBX 7 16 0 -3
BITMAP
00
00
00
00
00
6C
6C
00
00
60
60
00
00
6C
6C
00
ENDCHAR
STARTCHAR U+28D7 braille pattern dots-123578
ENCODING 10455
SWIDTH 560 0
DWIDTH 7 0
BBX 7 16 0 -3
BITMAP
00
60
60
00
00
6C
6C
00
00
60
60
00
00
6C
6C
00
ENDCHAR
STARTCHAR U+28D8 braille pattern dots-4578
ENCODING 10456
SWIDTH 560 0
DWIDTH 7 0
BBX 7 16 0 -3
BITMAP
00
0C
0C
00
00
0C
0C
00
00
00
00
00
00
6C
6C
00
ENDCHAR
STARTCHAR U+28D9 braille pattern dots-14578
ENCODING 10457
SWIDTH 560 0
DWIDTH 7 0
BBX 7 16 0 -3
BITMAP
00
6C
6C
00
00
0C
0C
00
00
00
00
00
00
6C
6C
00
ENDCHAR
STARTCHAR U+28DA braille pattern dots-24578
ENCODING 10458
SWIDTH 560 0
DWIDTH 7 0
BBX 7 16 0 -3
BITMAP
00
0C
0C
00
00
6C
6C
00
00
00
00
00
00
6C
6C
00
ENDCHAR
STARTCHAR U+28DB braille pattern dots-124578
ENCODING 10459
SWIDTH 560 0
DWIDTH 7 0
BBX 7 16 0 -3
BITMAP
00
6C
6C
00
00
6C
6C
00
00
00
00
00
00
6C
6C
00
ENDCHAR
STARTCHAR U+28DC braille pattern dots-34578
ENCODING 10460
SWIDTH 560 0
DWIDTH 7 0
BBX 7 16 0 -3
BITMAP
00
0C
0C
00
00
0C
0C
00
00
60
60
00
00
6C
6C
00
ENDCHAR
STARTCHAR U+28DD braille pattern dots-134578
ENCODING 10461
SWIDTH 560 0
DWIDTH 7 0
BBX 7 16 0 -3
BITMAP
00
6C
6C
00
00
0C
0C
00
00
60
60
00
00
6C
6C
00
ENDCHAR
STARTCHAR U+28DE braille pattern dots-234578
ENCODING 10462
SWIDTH 560 0
DWIDTH 7 0
BBX 7 16 0 -3
BITMAP
00
0C
0C
00
00
6C
6C
00
00
60
60
00
00
6C
6C
00
ENDCHAR
STARTCHAR U+28DF braille pattern dots-1234578
ENCODING 10463
SWIDTH 560 0
DWIDTH 7 0
BBX 7 16 0 -3
BITMAP
00
6C
6C
00
00
6C
6C
00
00
60
60
00
00
6C
6C
00
ENDCHAR
STARTCHAR U+28E0 braille pattern dots-678
ENCODING 10464
SWIDTH 560 0
DWIDTH 7 0
BBX 7 16 0 -3
BITMAP
00
00
00
00
00
00
00
00
00
0C
0C
00
00
6C
6C
00
ENDCHAR
STARTCHAR U+28E1 braille pattern dots-1678
ENCODING 10465
SWIDTH 560 0
DWIDTH 7 0
BBX 7 16 0 -3
BITMAP
00
60
60
00
00
00
00
00
00
0C
0C
00
00
6C
6C
00
ENDCHAR
STARTCHAR U+28E2 braille pattern dots-2678
ENCODING 10466
SWIDTH 560 0
DWIDTH 7 0
BBX 7 16 0 -3
BITMAP
00
00
00
00
00
60
60
00
00
0C
0C
00
00
6C
6C
00
ENDCHAR
STARTCHAR U+28E3 braille pattern dots-12678
ENCODING 10467
SWIDTH 560 0
DWIDTH 7 0
BBX 7 16 0 -3
BITMAP
00
60
60
00
00
60
60
00
00
0C
0C
00
00
6C
6C
00
ENDCHAR
STARTCHAR U+28E4 braille pattern dots-3678
ENCODING 10468
SWIDTH 560 0
DWIDTH 7 0
BBX 7 16 0 -3
BITMAP
00
00
00
00
00
00
00
00
00
6C
6C
00
00
6C
6C
00
ENDCHAR
STARTCHAR U+28E5 braille pattern dots-13678
ENCODING 10469
SWIDTH 560 0
DWIDTH 7 0
BBX 7 16 0 -3
BITMAP
00
60
60
00
00
00
00
00
00
6C
6C
00
00
6C
6C
00
ENDCHAR
STARTCHAR U+28E6 braille pattern dots-23678
ENCODING 10470
SWIDTH 560 0
DWIDTH 7 0
BBX 7 16 0 -3
BITMAP
00
00
00
00
00
60
60
00
00
6C
6C
00
00
6C
6C
00
ENDCHAR
STARTCHAR U+28E7 braille pattern dots-123678
ENCODING 10471
SWIDTH 560 0
DWIDTH 7 0
BBX 7 16 0 -3
BITMAP
00
60
60
00
00
60
60
00
00
6C
6C
00
00
6C
6C
00
ENDCHAR
STARTCHAR U+28E8 braille pattern dots-4678
ENCODING 10472
SWIDTH 560 0
DWIDTH 7 0
BBX 7 16 0 -3
BITMAP
00
0C
0C
00
00
00
00
00
00
0C
0C
00
00
6C
6C
00
ENDCHAR
STARTCHAR U+28E9 braille pattern dots-14678
ENCODING 10473
SWIDTH 560 0
DWIDTH 7 0
BBX 7 16 0 -3
BITMAP
00
6C
6C
00
00
00
00
00
00
0C
0C
00
00
6C
6C
00
ENDCHAR
STARTCHAR U+28EA braille pattern dots-24678
ENCODING 10474
SWIDTH 560 0
DWIDTH 7 0
BBX 7 16 0 -3
BITMAP
00
0C
0C
00
00
60
60
00
00
0C
0C
00
00
6C
6C
00
ENDCHAR
STARTCHAR U+28EB braille pattern dots-124678
ENCODING 10475
SWIDTH 560 0
DWIDTH 7 0
BBX 7 16 0 -3
BITMAP
00
6C
6C
00
00
60
60
00
00
0C
0C
00
00
6C
6C
00
ENDCHAR
STARTCHAR U+28EC braille pattern dots-34678
ENCODING 10476
SWIDTH 560 0
DWIDTH 7 0
BBX 7 16 0 -3
BITMAP
00
0C
0C
00
00
00
00
00
00
6C
6C
00
00
6C
6C
00
ENDCHAR
STARTCHAR U+28ED braille pattern dots-134678
ENCODING 10477
SWIDTH 560 0
DWIDTH 7 0
BBX 7 16 0 -3
BITMAP
00
6C
6C
00
00
00
00
00
00
6C
6C
00
00
6C
6C
00
ENDCHAR
STARTCHAR U+28EE braille pattern dots-234678
ENCODING 10478
SWIDTH 560 0
DWIDTH 7 0
BBX 7 16 0 -3
BITMAP
00
0C
0C
00
00
60
60
00
00
6C
6C
00
00
6C
6C
00
ENDCHAR
STARTCHAR U+28EF braille pattern dots-1234678
ENCODING 10479
SWIDTH 560 0
DWIDTH 7 0
BBX 7 16 0 -3
BITMAP
00
6C
6C
00
00
60
60
00
00
6C
6C
00
00
6C
6C
00
ENDCHAR
STARTCHAR U+28F0 braille pattern dots-5678
ENCODING 10480
SWIDTH 560 0
DWIDTH 7 0
BBX 7 16 0 -3
BITMAP
00
00
00
00
00
0C
0C
00
00
0C
0C
00
00
6C
6C
00
ENDCHAR
STARTCHAR U+28F1 braille pattern dots-15678
ENCODING 10481
SWIDTH 560 0
DWIDTH 7 0
BBX 7 16 0 -3
BITMAP
00
60
60
00
00
0C
0C
00
00
0C
0C
00
00
6C
6C
00
ENDCHAR
STARTCHAR U+28F2 braille pattern dots-25678
ENCODING 10482
SWIDTH 560 0
DWIDTH 7 0
BBX 7 16 0 -3
BITMAP
00
00
00
00
00
6C
6C
00
00
0C
0C
00
00
6C
6C
00
ENDCHAR
STARTCHAR U+28F3 braille pattern dots-125678
ENCODING 10483
SWIDTH 560 0
DWIDTH 7 0
BBX 7 16 0 -3
BITMAP
00
60
60
00
00
6C
6C
00
00
0C
0C
00
00
6C
6C
00
ENDCHAR
STARTCHAR U+28F4 braille pattern dots-35678
ENCODING 10484
SWIDTH 560 0
DWIDTH 7 0
BBX 7 16 0 -3
BITMAP
00
00
00
00
00
0C
0C
00
00
6C
6C
00
00
6C
6C
00
ENDCHAR
STARTCHAR U+28F5 braille pattern dots-135678
ENCODING 10485
SWIDTH 560 0
DWIDTH 7 0
BBX 7 16 0 -3
BITMAP
00
60
60
00
00
0C
0C
00
00
6C
6C
00
00
6C
6C
00
ENDCHAR
STARTCHAR U+28F6 braille pattern dots-235678
ENCODING 10486
SWIDTH 560 0
DWIDTH 7 0
BBX 7 16 0 -3
BITMAP
00
00
00
00
00
6C
6C
00
00
6C
6C
00
00
6C
6C
00
ENDCHAR
STARTCHAR U+28F7 braille pattern dots-1235678
ENCODING 10487
SWIDTH 560 0
DWIDTH 7 0
BBX 7 16 0 -3
BITMAP
00
60
60
00
00
6C
6C
00
00
6C
6C
00
00
6C
6C
00
ENDCHAR
STARTCHAR U+28F8 braille pattern dots-45678
ENCODING 10488
SWIDTH 560 0
DWIDTH 7 0
BBX 7 16 0 -3
BITMAP
00
0C
0C
00
00
0C
0C
00
00
0C
0C
00
00
6C
6C
00
ENDCHAR
STARTCHAR U+28F9 braille pattern dots-145678
ENCODING 10489
SWIDTH 560 0
DWIDTH 7 0
BBX 7 16 0 -3
BITMAP
00
6C
6C
00
00
0C
0C
00
00
0C
0C
00
00
6C
6C
00
ENDCHAR
STARTCHAR U+28FA braille pattern dots-245678
ENCODING 10490
SWIDTH 560 0
DWIDTH 7 0
BBX 7 16 0 -3
BITMAP
00
0C
0C
00
00
6C
6C
00
00
0C
0C
00
00
6C
6C
00
ENDCHAR
STARTCHAR U+28FB braille pattern dots-1245678
ENCODING 10491
SWIDTH 560 0
DWIDTH 7 0
BBX 7 16 0 -3
BITMAP
00
6C
6C
00
00
6C
6C
00
00
0C
0C
00
00
6C
6C
00
ENDCHAR
STARTCHAR U+28FC braille pattern dots-345678
ENCODING 10492
SWIDTH 560 0
DWIDTH 7 0
BBX 7 16 0 -3
BITMAP
00
0C
0C
00
00
0C
0C
00
00
6C
6C
00
00
6C
6C
00
ENDCHAR
STARTCHAR U+28FD braille pattern dots-1345678
ENCODING 10493
SWIDTH 560 0
DWIDTH 7 0
BBX 7 16 0 -3
BITMAP
00
6C
6C
00
00
0C
0C
00
00
6C
6C
00
00
6C
6C
00
ENDCHAR
STARTCHAR U+28FE braille pattern dots-2345678
ENCODING 10494
SWIDTH 560 0
DWIDTH 7 0
BBX 7 16 0 -3
BITMAP
00
0C
0C
00
00
6C
6C
00
00
6C
6C
00
00
6C
6C
00
ENDCHAR
STARTCHAR U+28FF braille pattern dots-12345678
ENCODING 10495
SWIDTH 560 0
DWIDTH 7 0
BBX 7 16 0 -3
BITMAP
00
6C
6C
00
00
6C
6C
00
00
6C
6C
00
00
6C
6C
00
ENDCHAR
STARTCHAR U+30FB katakana middle dot
ENCODING 12539
SWIDTH 560 0
DWIDTH 7 0
BBX 7 16 0 -3
BITMAP
00
00
00
00
00
00
00
38
38
38
00
00
00
00
00
00
ENDCHAR
STARTCHAR U+FFFD REPLACEMENT CHARACTER
ENCODING 65533
SWIDTH 560 0
DWIDTH 7 0
BBX 7 16 0 -3
BITMAP
00
00
30
78
CC
84
B4
F4
C4
CC
FC
48
78
30
00
00
ENDCHAR
ENDFONT
